<?xml version="1.0" encoding="UTF-8"?>
<svg id="Capa_2" data-name="Capa 2" xmlns="http://www.w3.org/2000/svg" viewBox="0 0 566.03 275.12">
  <defs>
    <style>
      .cls-1 {
        fill: #c13433;
      }

      .cls-2 {
        fill: #dc0e15;
      }

      .cls-3 {
        fill: #fefbfa;
      }

      .cls-4 {
        fill: #c22021;
      }

      .cls-5 {
        fill: #e00a14;
      }

      .cls-6 {
        fill: #020302;
      }

      .cls-7 {
        fill: #fee601;
      }

      .cls-8 {
        fill: #dc1616;
      }

      .cls-9 {
        fill: #df0e14;
      }

      .cls-10 {
        fill: #fce0e0;
      }

      .cls-11 {
        fill: #d51116;
      }

      .cls-12 {
        fill: #f9cccc;
      }

      .cls-13 {
        fill: #d51618;
      }

      .cls-14 {
        fill: #d51216;
      }

      .cls-15 {
        fill: #fbddda;
      }

      .cls-16 {
        fill: #fdfcfc;
      }

      .cls-17 {
        fill: #e10b14;
      }

      .cls-18 {
        fill: #d71818;
      }

      .cls-19 {
        fill: #190a06;
      }

      .cls-20 {
        fill: #d22429;
      }

      .cls-21 {
        fill: #fff;
      }

      .cls-22 {
        fill: #fdfafa;
      }

      .cls-23 {
        fill: #e30e13;
      }

      .cls-24 {
        fill: #e10a14;
      }

      .cls-25 {
        fill: #e30b13;
      }

      .cls-26 {
        fill: #e30d13;
      }

      .cls-27 {
        fill: #f9dddb;
      }

      .cls-28 {
        fill: #101010;
      }

      .cls-29 {
        fill: #db1415;
      }

      .cls-30 {
        fill: #020202;
      }

      .cls-31 {
        fill: #961915;
      }

      .cls-32 {
        fill: #cc1e1f;
      }

      .cls-33 {
        fill: #fdfbfb;
      }

      .cls-34 {
        fill: #030303;
      }

      .cls-35 {
        fill: #e30f13;
      }

      .cls-36 {
        fill: #fefcfc;
      }

      .cls-37 {
        fill: #df0a14;
      }

      .cls-38 {
        fill: #df1014;
      }

      .cls-39 {
        fill: #060506;
      }

      .cls-40 {
        fill: #020102;
      }

      .cls-41 {
        fill: #c63537;
      }

      .cls-42 {
        fill: #9e1a1b;
      }

      .cls-43 {
        fill: #d91415;
      }

      .cls-44 {
        fill: #dd1315;
      }

      .cls-45 {
        fill: #030202;
      }

      .cls-46 {
        fill: #c92b2d;
      }

      .cls-47 {
        fill: #d71316;
      }

      .cls-48 {
        fill: #dd0c15;
      }

      .cls-49 {
        fill: #d41416;
      }

      .cls-50 {
        fill: #e30c13;
      }

      .cls-51 {
        fill: #da1415;
      }

      .cls-52 {
        fill: #e20b14;
      }

      .cls-53 {
        fill: #de0a14;
      }

      .cls-54 {
        fill: #b61918;
      }

      .cls-55 {
        fill: #e00914;
      }

      .cls-56 {
        fill: #fdfcfb;
      }

      .cls-57 {
        fill: #fdf5f5;
      }

      .cls-58 {
        fill: #330f0f;
      }

      .cls-59 {
        fill: #c41718;
      }

      .cls-60 {
        fill: #fdfbfa;
      }

      .cls-61 {
        fill: #de0d14;
      }

      .cls-62 {
        fill: #fbd9d9;
      }

      .cls-63 {
        fill: #fdfaf9;
      }

      .cls-64 {
        fill: #b41e1e;
      }

      .cls-65 {
        fill: #e20b13;
      }

      .cls-66 {
        fill: #fbe8e5;
      }

      .cls-67 {
        fill: #fefcfb;
      }

      .cls-68 {
        fill: #b31917;
      }

      .cls-69 {
        fill: #c62526;
      }

      .cls-70 {
        fill: #fefafa;
      }

      .cls-71 {
        fill: #983215;
      }

      .cls-72 {
        fill: #020101;
      }

      .cls-73 {
        fill: #010101;
      }

      .cls-74 {
        fill: #db1718;
      }

      .cls-75 {
        fill: #df0914;
      }

      .cls-76 {
        fill: #010202;
      }

      .cls-77 {
        fill: #de1618;
      }

      .cls-78 {
        fill: #da1115;
      }

      .cls-79 {
        fill: #de0b14;
      }

      .cls-80 {
        fill: #d61216;
      }

      .cls-81 {
        fill: #dd0d15;
      }

      .cls-82 {
        fill: #dd0e15;
      }

      .cls-83 {
        fill: #e10914;
      }

      .cls-84 {
        fill: #cf2628;
      }

      .cls-85 {
        fill: #cd3538;
      }

      .cls-86 {
        fill: #3c1213;
      }

      .cls-87 {
        fill: #fad2d0;
      }
    </style>
  </defs>
  <g id="Capa_1-2" data-name="Capa 1">
    <g>
      <g>
        <path class="cls-50" d="M376.04,275.12h-6.89c.14-1.56-1.35-2.43-.46-3.99,1.18-2.07,6.03-2.07,8.25-.95,1.21.61.59,2.81-.25,3.43-.63.47-.66.99-.66,1.5Z"/>
        <path class="cls-50" d="M165.74,234.15c-2.53.73-5.13.77-7.64,1.14-3.76.56-3.93-2.96-6.11-3.03-.86-.03-1.64.21-2.36.85-2.59,2.3-3.25-.34-6.79-.91-.7-.11-1.28-.8-.92-1.57,1.89-4.06,5.69-2.71,10.62-3.25s14.3-1.54,18.77,1.1c1.08.64,2.6,1.31,3.66.22s2.9-1.76,4.1-.38c.45.51-.03,1.5-.45,1.95-1.57,1.63-7.12,6.13-9.16,4.1-1.14-1.13-2.27-.64-3.72-.22Z"/>
        <path class="cls-50" d="M167.32,237.72c1.23.52.35,2.27-.45,2.82-1.87,1.29-3.86,1.94-6.09,2.71-3.51-.83-6.96-.85-10.53-.94l-13.1-.35c-1.12-.03-3.14-.63-3.15-1.88,0-2.62,2.84-4.02,5.35-3.75,4.58.5,8.96.55,13.5-.09,1.88-.27,3.22.33,4.57,1.44,2.72,2.24,7.55-.95,9.9.05Z"/>
        <path class="cls-26" d="M69.52,195.45c-2.1,2.19-10.17.85-13.3.33-3.94-.65-7.65-1.37-11.61-1.41-.6,0-1.14-.54-1.36-.98-.89-1.8,4.16-4.15,6.33-4.74,1.07-.29,1.79-1.38,2.95-1.48,2.05-.18,4.63.42,6.25,1.72.9.73.94,2.27,2.44,2.35,1.65.09,3.18.66,4.62,1.5,1.13.66,2.53.58,3.59,1.33.44.31.35,1.09.07,1.38Z"/>
        <path class="cls-26" d="M172.54,238.45l5.5-1.24c2.36-.53,5.98,2.05,7.69,1.4s3.38-.97,5.31-.93c.82.02,4.13-2.26,5.84-.16.72.89.59,2.18-.1,3.07-3.01,3.86-10.75,1.8-15.18,1.62l-8-.32c-.88-.04-1.64-.52-1.87-1.13-.27-.72-.32-2.06.81-2.32Z"/>
        <path class="cls-50" d="M106.92,177.18c1.28,1.79-2.22,3.47-4.79,3.91-3.51.6-6.99.55-10.54.39-.6-.03-1.09-.61-1.27-.93-.3-.53.28-1.24.51-1.67,1.17-2.24,2.91-2.69,5.31-2.63l9.45.27c.56.02,1.12.38,1.33.66Z"/>
        <path class="cls-25" d="M77.69,184.85c1.87.42,5.28-.76,5.55,1.32.09.69-.34,1.44-1.23,1.69-1.72.48-3.55-.08-5.02-1.25-2.21,1.3-4.27.66-6.46.28-1.24-.22-3.11,1.72-4.48.58-.79-.66-1.21-1.85-2.31-2.48-.92-.53-1.5-2.37-.55-2.99.81-.52,1.86.39,2.55.7.96.44,2.24-.12,3.1.36,4.91,2.8,6.24-2.42,8.85,1.78Z"/>
        <path class="cls-35" d="M93.87,189.35c-2.93,1.03-8.29.9-8.29-1.88s6.08-2.18,7.95-1.88c.91.15,1.57.97,1.64,1.62.1.88-.33,1.8-1.31,2.14Z"/>
        <path class="cls-24" d="M395.65,268.98c1.35,3.22-11.15,3.1-11.9,1.14-.58-1.52,2.73-2.11,4.07-2.11l6.27-.02c.73,0,1.33.44,1.56,1Z"/>
        <path class="cls-17" d="M118.69,179.25c.68,1.4-2.56,3.09-4.56,2.28-.8-.32-7.24-2.97-6.01-4.12,1.89-1.78,4.81-1.08,6.65.35,1.04.81,3.32.25,3.93,1.49Z"/>
        <path class="cls-23" d="M186.22,235.51c-.73.98-1.52,1.42-2.34,1.57-2.21.4-4.68-3.49-3.3-4.95,1.26-1.34,4.06-1.65,5.6-.63,1.46.96.92,2.83.04,4.01Z"/>
        <path class="cls-82" d="M60.47,178.33c-.77-.18-3.95,1.4-4.54-.43-.19-.6.02-1.39.71-1.69,2.53-1.09,2.18,1.94,4.9-.31.84-.69,2.86-1.55,3.49-.31.49.97-.68,1.97-1.29,2.41-.9.64-2.24.56-3.26.32Z"/>
        <path class="cls-55" d="M51.56,164.33c2.66,1.36,4.93,1.08,5.21,2.16.12.44.04,1.18-.54,1.57-2.13,1.41-5.42.61-6.32-1.81-.24-.65-.2-1.24.03-1.57.34-.48,1.03-.64,1.61-.34Z"/>
        <path class="cls-53" d="M58.95,185.09c-2.34-1.06-5.21-.68-4.94-3.01.26-2.19,4.74-.85,6.75,1.38.37.41.1,1.05-.13,1.27-.29.28-1.03.67-1.69.37Z"/>
        <path class="cls-75" d="M367.86,264.39c-2.17.69-3.97,2.09-4.98,1.39-.43-.3-.66-1.27-.29-1.93.96-1.73,3.42-2.36,5.32-1.85.61.16.82.74.86,1.07.08.56-.26,1.12-.91,1.33Z"/>
        <path class="cls-9" d="M30.61,153.73c.33.87-.21,1.66-.62,2.01-.68.57-1.63.69-2.54.63-1.14-.09-2.05-.83-2-1.85s1.04-1.56,2.17-1.66c1.06-.1,2.51-.4,3,.88Z"/>
        <path class="cls-81" d="M132.02,199.34c-.35,1.76-3.62,1.63-4.78.9-.36-.23-.61-.56-.66-.86-.22-1.37,3.16-2.04,4.66-1.65.78.21.89,1.06.78,1.61Z"/>
        <path class="cls-51" d="M56.77,159.7c-1.27.73-2.87.63-3.97-.29-.37-.31-.43-.77-.37-1.11.21-1.02,2.96-1.36,4.52-.29.6.41.41,1.36-.18,1.7Z"/>
        <path class="cls-51" d="M133.32,217.68c-1.71.06-3.24-.01-4.14-1.49,1.26-1.01,5.43-1.72,5.49.24.02.65-.43,1.22-1.35,1.25Z"/>
        <path class="cls-74" d="M103.21,190.13c-1.07.46-2.14.15-2.47-.71-.38-.97.18-1.99,1.31-2.28.97-.25,1.85,0,2.18.87.29.74.02,1.67-1.02,2.12Z"/>
        <path class="cls-43" d="M86.89,179.55c.48,1.31-1.35,1.5-2.24,1.38-.68-.09-1.18-.14-1.54-.49-.34-.33-.43-1.23.13-1.67.9-.7,3.14-.6,3.65.78Z"/>
        <ellipse class="cls-85" cx="100.47" cy="213.76" rx=".95" ry=".94"/>
        <g>
          <path class="cls-50" d="M86.01,203.65l-.25.36c.76.88.71,2.64-.49,3.07-3.17,1.2-6.56.51-10.03.35-2.12-.09-4.06.61-6.24,0-2.42-.69-4.23,1.88-6.01-.2-.43-.5-1.1-.81-1.63-.64-1.61.52-.71,3.26-1.95,3.37-2.52-3.61-4.3-.42-7.24-2.7-1.68-1.3-2.15,1.06-5.07-.44-4.01-2.06-5.87,2.9-7.97,1.35-2.7-1.98-7.55-.66-12.06-1.14-1.93-.21-3.6-.45-5.57.06s-4.37.14-5.7-1.43c-.44-.52-.28-1.47,0-1.95.21-.37.88-.65,1.6-.67,4.22-.13,8.31-.13,12.52-.25l7.86-.23c1.05-.03,1.87-1.28,2.88-1.22l4.03.24c1.99.12,3.67-.2,5.66.33s5.51-3.33,8.31-.62c.67.64,1.99,1,2.87.42,1.97-1.28,4.06-1.5,6.32-1.96,4.12-.83,7.99-2.05,12.25-2.13,2.75-.05,2.59,2.53,4.58,1.73,5.96-2.38,10.93-1.33,16.58-3.45,1.57-.59,2.82.32,4.13.41s2.48-.29,3.75.66c1.72,1.29,4.06.97,5.56-.48.75-.72,1.91-.82,2.68-1.45,3.68-3.02,8.27-2.23,8.51-.65.44,2.96-4.99,1.16-6.51,3.96-.91,1.67-2.4,2.18-3.95,3.01-1.3.7-2.27,1.59-3.95,1.56-5.44-.07-10.76,1.18-15.82,3.2-1.02.41-2.27.43-2.82-.6-.99-1.85-7.39-1.97-6.83-1.84Z"/>
          <path class="cls-12" d="M86.01,203.65c.4.89.62,1.93.23,2.99-.17.47-.7.34-.96.44.63-.4,1.24-2.41.33-2.68-2.59-.77-5.32-.58-8-.64l-9.25-.22c1.3-1.13,2.88-.7,4.51-.6,8.01.49,4.7-1.33,13.14.72Z"/>
        </g>
      </g>
      <g>
        <path class="cls-50" d="M40.51,128.73c2.29,3.91-11.6,1.78-14.01,1.17-5.41-1.36-10.56-.1-11.57-1.63-.88-1.32.97-3.27,2.32-3.81,1.82-.73,3.67-1.14,5.22-2.33,1.62-1.26,3.07-.5,4.63-.07,2.25.62,3.53,1.29,4.68,3.43,2,1.71,6.68-.29,8.74,3.24Z"/>
        <path class="cls-50" d="M46.17,74.01c1.6.69,3.69-.19,5.18.69,1.01.6.17,2.15-.81,2.58-4.32,1.92-11.18,1.26-11.53-.7-.2-1.14,1.56-2.05.89-2.73-1.42-1.45-4.11-1.29-4.36-3.42-.08-.7.61-1.13,1.14-1.73l2.26-2.55c2.33-.48,4.57-.78,6.79-1.56.85-.3,1.61-.06,2.38.26.53.22.59,1.44,1.22,1.77.86.45,2.23-.48,2.97.55.69.95.24,2.17-.58,2.86-2.4,2.01-4.16-1.47-5.69.71-1.25,1.77-2.98.54-3.21,1.46-.1.39.35.54.76.71l2.58,1.11Z"/>
        <path class="cls-26" d="M91.99,107.74c.28,2.95-12.27,1.83-14.85,1.81-1.79-.01-3.59.62-5.25-.48.87-3.12,7.89-4.45,10.2-3.78,1.84.53,3.14,1.14,5.09.29,1.67-.72,4.61.1,4.8,2.15Z"/>
        <path class="cls-25" d="M78.66,112.81c-2.91,3-12.04,3.07-16,3.08-.55,0-1.65-.73-1.32-1.2.66-.95,1.39-1.62,1.76-2.71.41-1.22,1.73-1.54,2.92-1.53,3.09.03,10.59-.21,12.64,2.37Z"/>
        <path class="cls-52" d="M53.58,122.51c-2.05.62-3.93-.12-4.82-1.84-1.58.02-3.05,1.21-4.47.85-1.35-.34-2.23-.76-3.58.06-4,2.44-5.17-2.72-7.55-4.38.09-1.01,1.98-1.3,2.86-.83,1.49.79,3.12.5,4.55,1.09l2.46,1.02c1.27-.72,2.47-1.01,3.9-.85,1.21.14,1.94,1.23,2.76,2.03,1.41.02,5.04-.8,5.09,1.49.01.55-.46,1.12-1.2,1.34Z"/>
        <path class="cls-26" d="M107.22,29.39c-.86,2.81-13.02,1.33-17.56,1.91-.67.09-1.84.33-2.31-.32-.68-.95.39-2.25,1.44-2.63,3.39-1.24,6.95-.55,10.5-.55h5.91c.81,0,2.31.62,2,1.6Z"/>
        <path class="cls-23" d="M19.71,110.64c.18,3.48-14.76,3.43-17.35,3.19-.83-.08-1.73-.33-2.35-.93.97-1.56,2.6-1.37,4.05-1.76,3.1-.83,6.04-1.44,9.23-1.56,1.02-.04,6.33-.64,6.42,1.07Z"/>
        <path class="cls-52" d="M33.19,34.4c-3.11,1.05-13.44,1.2-16.39.65-.56-.11-1.19-.58-1.22-.99-.17-2.12,10.63-2.23,12.89-2.38,1.21-.08,6.05-.69,5.96,1.36-.03.59-.54,1.12-1.24,1.36Z"/>
        <path class="cls-83" d="M30.42,22.45c-.89.15-7.38,3.21-12.78.03-.31-.64.89-1.6,1.6-1.9,4.04-1.69,7.5,1.24,13.42-.77,1.11-.38,3.14-.51,3.83.43.56.76-.82,1.32-1.31,1.41l-4.77.8Z"/>
        <path class="cls-55" d="M20.68,98.83c-.99,1.56-3.15,1.94-4.87,2.12-2.1.21-13.92,1.76-13.69-.87.03-.33.43-.72.86-.9,4.71-2.03,9.34.48,15.23-1.01.68-.17,2.14-.1,2.47.66Z"/>
        <path class="cls-17" d="M31.89,112.4c-2.61.87-5.26.45-7.22-1.18-2.97-2.49,11.68-3.85,13.61-.63-1.7,1.42-3.82,2.25-6.39,1.82Z"/>
        <path class="cls-17" d="M51.81,32.55c-2.59,1.32-6.93.71-10.4,1.35-.55.1-1.51-.12-1.63-.7-.78-3.84,7.86-3.51,11.94-2.01.29.11.42.53.59.66.24.19-.15.51-.51.69Z"/>
        <path class="cls-65" d="M66.09,120.78c.85.99-1.31,3.32-1.92,3.47-2.17.5-7.35-.37-7.48-2.74-.11-2.08,8.17-2.16,9.4-.73Z"/>
        <path class="cls-17" d="M89.78,114.9c-.94,1.39-3.22,1.89-4.49.89-3.59-2.84-5.25-1.31-5.58-2.83-.09-.43.28-.95.81-1.22,1.88-.94,5.18.71,8.37,1.15.8.11,1.49,1.12.88,2.02Z"/>
        <path class="cls-55" d="M114.94,8.09c-1.61-.06-6.87.27-6.95-1.92s5.77-1.52,7.54-1.17c1.02.2,1.51.98,1.39,1.76-.16,1.09-.85,1.38-1.99,1.33Z"/>
        <path class="cls-55" d="M83.73,126.95c-.01,2.89-5.03,2.51-7.22,1.43-.18-.94-.33-2.46.7-2.93,1.38-.63,6.53-1.12,6.52,1.5Z"/>
        <path class="cls-17" d="M97.74,50.22c-2.37,1.37-6.99.61-6.75-1.84.08-.83.86-1.1,1.76-1.23,1.6-.23,5.24-1.01,5.84.97.21.7,0,1.6-.85,2.1Z"/>
        <path class="cls-24" d="M58.58,84.56c-.78,2.02-3.95.75-5.65-.4-.77-.52-1.24-2.22-.12-2.67,1.71-.7,3.97-.16,5.61.71.81.43.44,1.66.17,2.36Z"/>
        <path class="cls-5" d="M55.12,55.59c-.95,3.39-7.15,2.96-9.99,1.6,2.68-2.27,6.6-2.66,9.99-1.6Z"/>
        <path class="cls-5" d="M170.66,9.3c1.36,2.61-6.26,2.04-8.08.71,1.73-2.41,6.77-3.2,8.08-.71Z"/>
        <path class="cls-37" d="M73.5,127.25c-.66.57-3.26.07-3.47-1.05-.1-.49.1-1,.63-1.31,1.89-1.11,1.35-2.97,2.55-3.13.5-.06,1.29.22,1.59.92.61,1.45-.06,3.49-1.3,4.57Z"/>
        <path class="cls-53" d="M32.7,71.91c-.97,1.43-2.87,1.92-4.43,1.16-.77-.37-.95-1.53-.39-2.19.94-1.13,2.57-1.86,4.09-1.49,1.04.26,1.28,1.7.73,2.52Z"/>
        <path class="cls-55" d="M30.34,119.04l-4.13-.8c-.69-.13-1.18-.38-1.33-.88-.6-2.05,4.75-2.01,6.71-.35.42.35.25,1.12.22,1.45-.05.56-.79.7-1.46.57Z"/>
        <path class="cls-5" d="M32.71,57.29c.5,1.32-.74,2.3-1.57,2.72-.93.47-2.64.54-3.24-.62s.59-2.32,1.38-2.66c1.02-.44,2.9-.84,3.43.56Z"/>
        <path class="cls-77" d="M77.27,30.03c-.94,1.93-3,2.53-4.85,2.41-.86-.05-1.22-.83-1.25-1.46-.08-2.12,4.56-1.42,6.1-.95Z"/>
        <path class="cls-29" d="M62.4,108.15c-.72,1.54-2.12,1.75-3.67,1.9-.91.09-2.84-.76-2.4-1.68,1.44-1.62,4.29-1.14,6.07-.23Z"/>
        <path class="cls-8" d="M89.59,48.39c.09,1.5-2.07,1.53-2.99,1.4s-1.46-.56-1.6-1.23.16-1.52,1.13-1.83c1.1-.36,3.37.06,3.46,1.66Z"/>
        <path class="cls-61" d="M58.96,57.47c-1.5.61-3.08-.4-3.62-1.7,1-1.57,3.04-1.89,4.53-.85.59.9.3,2.06-.91,2.55Z"/>
        <path class="cls-38" d="M141.44,8.62c.37.78.18,1.53-.17,1.98-.31.39-1.01.49-1.68.44-1.05-.08-1.93-.59-2.07-1.56-.11-.8.4-1.75,1.46-2,.83-.19,2.03.25,2.46,1.14Z"/>
        <path class="cls-48" d="M58.55,76.75c-.69.89-2.13.42-2.7-.23-.48-.54-1.18-1.83-.41-2.57s1.94-.23,2.57.31c.55.47,1.27,1.54.54,2.49Z"/>
        <path class="cls-74" d="M61.23,24.78c.58.78.11,1.55-.37,1.83-1.14.66-2.51.34-3.16-.38-.32-.36-.67-1.28-.13-1.69.93-.7,2.9-.78,3.66.24Z"/>
        <path class="cls-14" d="M58.53,114.87c-1.06,1.33-3.25.86-4.07-.45-.3-.48.1-1.04.33-1.28.74-.72,3.48.14,3.73,1.72Z"/>
        <path class="cls-49" d="M46.25,105.07c-1.17.64-3.33.25-3.72-1.12.04-1.29,3.68-1.32,4.02-.37.17.46.25,1.18-.31,1.49Z"/>
        <path class="cls-47" d="M81.4,49.73c-1.03.08-1.77-.67-1.82-1.4-.06-.91.76-1.44,1.73-1.49s1.56.45,1.7,1.19c.17.85-.51,1.61-1.61,1.7Z"/>
        <ellipse class="cls-18" cx="66.39" cy="126.03" rx="1.42" ry="1.4"/>
        <path class="cls-20" d="M65.62,56.27c-.42.29-.87.4-1.31.23-.36-.14-.65-.51-.6-.96.04-.39.31-.79.79-1.02.6-.29,1.11-.15,1.55.26.47.44.22,1.03-.43,1.48Z"/>
        <path class="cls-84" d="M105.75,14.24c-1.04.16-1.98-1.21-1.42-1.94s1.32-.26,1.77.14c.49.44.55,1.66-.35,1.8Z"/>
        <path class="cls-32" d="M182.48,14.75c-.37,1.16-2.59.4-2.64-.55-.04-.67,1.06-.68,1.46-.73.43-.05,1.49.28,1.18,1.28Z"/>
        <polygon class="cls-41" points="195.89 13.77 195.96 15.09 193.98 15.2 193.91 13.88 195.89 13.77"/>
      </g>
      <g>
        <path class="cls-50" d="M218.66,0l.78.23c2.88,4.9,10.79,3,15.37,1.68,2.49-.25,5.02-.05,7.57.58.87-.64,1.78-1.25,2.71-1.82,1.28-.04,2.33.58,3.16,1.85l.88.35c2.96,0,5.92-.12,8.9-.33,2.01-.06,3.5,1.06,4.47,3.37,2.03.82,4.28.81,6.77-.01,2.42-.05,4.72.68,6.9,2.18,2.13.52,4.37.52,6.71-.01,2.78.53,5.41.29,7.89-.72,1.88-.24,3.81-.09,5.8.45,3.74-.48,7.09.1,10.03,1.75,2.64,2.48,5.31,4.9,8.03,7.26,1.15.65,1.82.27,2-1.13.74-.77,1.83-.94,2.83-1.09,11.41-1.17-.51-.75-4.07-.59-1.92-.14-4.76-.37-4.57-2.92.18-2.36,2.66-2.71,4.6-2.82,8.3-.51,17-1.01,25.19-.06,4.7,2.37,8.82,5.58,12.37,9.64.2.19,1.1.8,1.21.73.58-.4-4.71-4.9-5.47-5.18-2.36-3.87,2.16-4.82,5.16-5.11l13.14-.17c4.47-.8,8.71-.59,12.71.63,3.53,2.26,6.77,4.91,9.72,7.95,2.97,1.64,2.35.3-1.85-4.04-1.11-3.24,2.01-4.03,4.61-4.06l21.63-.85c3.01.07,5.52,1.28,7.86,3.02,1.67.86,3.18-.05,4.49-1.1l2.96-1.01c7.27.05,14.49-.26,21.66-.94,1.35-1.14,2.66-2.36,3.93-3.66,2.27-.78,3.71-2.03,4.32-3.75l.78-.3h9.7l.95.36c.97,1.62,2.57,2.42,4.41,2.71,5.12.82,12.34.83,16.61-2.35,1.77-.56,2.96.35,4.04,1.58,1.45.74,3.13,1.16,5.04,1.24,4.08,1.46,8.28,2.53,12.6,3.22,2.15-.07,4.1.31,5.84,1.14.82-.68,2.35-1.37,3.47-1.43.27-.02,5.13.75,5.38.86,2.09.88,1.48,3.54.23,4.98-1.3,3.33-1.37,5.65.84,8.62.99,1.34,1.24,1.17,1.96-.18.62-3.18,4.07-12.14,8.41-10.01,1.78.88,2.05,3.59,1.16,5.2-1.16,1.7-1.84,3.44-2.04,5.23,1.47,1.66,3.34,3.04,5.59,4.17,1.88,2.08,1.14,4.08-1.04,5.53-6.28,2.14-.31,4,2.38,1.1l2.79-3.91c3.08-3.32,8.08-1.45,5.64,3.26,5.68-1.5,4.23,3.19,1.45,5.96,4.88.18,5.04,2.02,5.28,6.23l4.66,1.43.36.69v1.04c-.07,1.03-2.55,1.53-3.6,1.68-2.75.2-5.53-.09-8.34-.88-.04.87.08,1.7.36,2.49,4.24.51,6.29,2.37,5.69,6.69-.54,3.94-3.88,5.4-6.75,2.23l-.58.02c1.21,2.24.91,4.61-.89,7.1-.24,1.43.28,2.86,1.56,4.27.68,2.14-.4,3.36-3.26,3.67-1.67,1.02-3.14,2.38-4.42,4.07-1.33.95-2.44,1.98-3.32,3.09l.07.43c4.33,2.48,2.84,7.98,1.01,11.63-.69,3.29-1.46,5.8-4.05,8.04-.92,2.44,1.34,6.46,3.15,8.32.73,1.56.5,3.23-.7,5.01-.03.89.89,1.64,2.74,2.25,1.11.94,1.48,2.33,1.12,4.18,2.47.44,4.92,4.04,2.2,5.51-.98.53-7.31-.47-8.55-1.26-.62,2.21.74,3.6,4.08,4.18,1.51,1.16,1.9,3.52,1.66,5.32-.66,5.01-3.46,4.5-6.95,2.33.55,1.73.55,3.41,0,5.04-.95,1.47-1.31,2.89-1.07,4.26,2.93,2.77,1.67,5.05-2.1,6.05-1.71,1.16-3.23,2.59-4.58,4.28-1.74.95-2.67,1.98-2.79,3.1,4.41,2.98,2.71,9.17.27,13-.17,1.86-.78,3.6-1.83,5.24-.86,2.25-1.1,4.47-.72,6.66,4.16,6.2,1.15,11.76-2.19,17.46-1.13,1.97-.09,3.39,1.13,4.97,5.78,9.52-1.49,15.58-8.5,21.12-1.99,3.09-4.31,5.96-6.94,8.6l-4.24,6.25c-1.39,1.11-2.88,2.11-4.46,3-1.41,3.69-2.81,7.39-4.2,11.1-2.14,3.4-4.13,3.07-5.51-.54l-9.3.02c-3.51,1.83-6.94,1.06-8.66-2.53-2.14-4.45,1.28-5.4,4.87-3.33,2.27-1.46,4.87-1.8,7.79-1.02,1.22-.44-.92-2.09-1.78-2.15-8.96-.61-18.65,1.91-27.06,4.66-2.53,1.49-5.22,2.12-8.18,1.88-4.59-.66-9.18-.98-13.78-.96-.39,1.8-1.18,2.94-2.36,3.4-1.49-.33-2.7-.14-3.61.56-2.33,4.04-3.84,1.98-5.34-1.02-2.2-.67-3.27-1.79-3.22-3.39-1.9.36-1.91.9,0,1.62.85.8,4.13,5.31,4.25,6.23.36,2.73-1.78,3.14-4,3.01-2.01-.49-4.04-.75-6.11-.77-2.58.52-5.42.44-4.81-2.87,1.7-2.59-.42-2.29-2.33-1.64-2.63,2.12-5.32,2.79-8.09,2.01-1.98-1.37-3.94-2.02-5.9-1.95-1.4.97-2.76,1.3-4.09,1-3.17-1.8-6.65-1.63-10.43.51-2.81.67-5.68-.06-7.9-1.86-2.4-.33-4.94-.29-7.63.11-8.58-.18-17.19-.57-25.81-1.16.11,3.69-4.04,3.57-6.94,3.41-2.2-.12-5.26-.36-6.36-2.52-1.17,3.01-5.18,1.9-5.4-1.11-.56-.32-1.2-.41-1.85-.42-3.01-.07-11.45,1.27-14.28,2.22-3.3,2.01-5.12,1.97-7.78-.89-1.49-.47-2.83-.45-4.01.06-.41,5.56-7.5,4.41-11.42,3.25-2.1.85-4.09.93-5.97.24-1.37-.02-2.75.15-4.13.53-1.49-.79-2.86-1.24-4.11-1.36.88,2.58-.98,4.75-3.57,5.35-2.94.68-3.52-2.4-.9-3.52-1.67.01-3.28-.57-4.84-1.73-1.02.28-2.05.46-3.1.55-1.85-1.03-3.54-1.26-5.08-.71-1.06,1.45-2.04,2.66-3.92,3.07-5.98,1.3-14.13.92-20.27.43-4.79-.38-8.73-1.09-12.97-3.35-3.1-.5-6.28-.64-9.53-.44-3.14.42-11.67-3.21-5.73-5.54,14.93,1.17,29.93,1.42,45,.76,1.78-.4,3.53-.98,5.24-1.74,2.27.3,4.07.36,6.32-.18,1.35.76,2.61,1.01,3.79.75,2.8-1.11,5.37-2.1,7.92.11,2.37-.13,4.76-.86,7.18-2.19,4.44-.69,8.91-1.36,13.4-2.01,1.73.52,3.44.99,5.14,1.42,4.15-1.25,8.39-1.98,12.71-2.19,3.78-1.42,7.37-1.57,10.78-.47,3.11,2.65,6.41.45,9.06-1.72.26-.21.67-.64.37-.88-2.63.28-4.83-.27-6.6-1.65-.67-1.11-1.45-1.97-2.34-2.57-4.27.12-8.53-.02-12.8-.41-4.05-.45-4.89-2.44-2.59-5.11-1.78.91-3.43,2.18-4.95,3.81l-2.86,1.38c-.86,2.04-2.18,2.93-3.97,2.66-.72,2.88-3.78,1.74-5.2-.13-.96,1.54-1.44,1.84-3.21,2.22-4.76,1.01-8.2-.42-12.36-2.23l-.89.08c-5.7,2.5-11.8,1.94-17.17-1.06-2.06.03-3.83-.43-5.31-1.39-1.66-2.19-4.27-4.41-7.2-3.41-2.36,1.67-4.8,2.67-7.32,3-7.44-1.38-4.73-5.83-.4-9.12.38-.97-.88-.64-3.79.98-.7,3.24-3.33,6.03-6.65,3.65-1.3-.93-5.36-4.83-3.1-6.07,2.15-.3,7.09-5.57,2.42-2.45-1.65.43-3.33.23-5.02-.62-4.74.17-8-2.5-4.44-6.66,3.85-4.5,9.53-4.36,14.56-2.13,4.45.1,3.98-3.3-.19-4.29-3.92-.28-7.89-.07-11.91.63-7.54,1.4-7.64-4.55-1.68-6.49,6.91-.27,13.83-.27,20.75,0,.12,0,.51-.44.49-.52-.1-.51-8.63-2.8-10.12-2.26-1.5.73-3.05,1.21-4.65,1.46-8.19-.1-16.38-.08-24.57.06-.96.24-1.4.83-.06,1.05l7.66.02c4.66-.32,6.8,4.41,1.68,5.77-4.9-.96-9.59-.73-14.06.67l-1.48.86c-1.25,1.41-2.56,2.62-3.95,3.63,2.31-1.4,4.96-1.64,7.94-.71,2.09-1.37,3.76-1.21,5,.49,2.23.36,4.47.51,6.74.44,3.23-2.23,7.07,2,5.69,4.75-.5,1-6.94,4.19-8.44,3.09-2.77-2.22-6.07-3.17-9.91-2.84-3.04-1.15-5.23-1.88-8.51-1.02-4.49-.75-8.48.13-12.6,1.92-2.26.37-4.05-.61-5.35-2.96-2.35-1.83-5.21-4.93-1.94-7.21,1.94-1.36,3.79-.92,5.81-.17.65-.23,1.17-1.63.58-1.98-3.59-2.11-10.01-1.99-14.13-1.74-8.2,1.24-16.37,2.39-24.53,3.46l-3.91-.05c-5.34-1.42-3.12-4.3,1.03-5.39,2.74-.39,5.43-.83,8.07-1.34-.63-.56-1.03-1.33-.64-2.15.83-1.76,9.6-2.41,10.95-1.77,1.53,2.8,3.92,3.05,6.71,1.87-.72-1.89-.9-3.8-.53-5.73.71-2.24,1.21-4.52,1.51-6.85.53-1.43,1.79-2.24,3.77-2.42-6.02-.65-4.39-6.04-.91-9.1l-.09-.28c-8.11-.85-4.1-8,1.92-7.49,6.8.1,13.64-.05,20.52-.47,5.51.06,9.47,2.16,9.9,8.04.47,6.32-6.95,5.08-6.75-.56-.48-.52-.96.28-1.44,2.39-1.14.8-2.56.57-4.27-.68-2.35.1-4.66-.21-6.92-.93-4.95,1.14-2.79,2.42,6.47,3.83,1.39.5,2.69,1.17,3.9,1.99,2.8-.21,5.64-.34,8.51-.37l.94.31c1.48,1.76,2.37,1.75,2.69-.03-.75-1.63-.84-3.09-.29-4.4,1.02-.75,1.39-1.49,1.1-2.22-6.8-3.02-1.25-7.77,4.1-6.88,1.35.05,11.98.42,12.12-.54.04-.24-.88-4.54-1.05-4.72-1.06,3.58-2.87,4.41-6.48,4.58-1.72.08-9.22.21-10.59-.54-.99-.73-1.78-1.6-2.37-2.63-.54,1.3-1.11,2.16-2.45,2.78-1.82.85-9.75.26-12.32.05-1.37-.11-2.82-1.16-3.4-2.37-2.47,2.44-4.01,2.72-7.58,2.81-1.89.05-6.71.18-8.29-.48-1.45-.61-2.27-1.2-2.96-2.62-.54.81-1.16,1.74-2.03,2.24-2.02,1.16-10.04.78-12.68.44-2.85-.37-3.04-2.48-3.14-4.78-.94,1.63-2.35,2.98-4.23,3.45-3.83.03-7.62.31-11.39.83-4.72.19-4.24-2.53-3.54-5.93-2.47,2.38-5.15,4.31-8.04,5.79-2.81.15-5.65-.28-8.5-1.3-4.9.19-5.67-1.89-2.68-5.62l-1.68.79c-2.56,2.64-4.79,3.73-8.28,4.64-5.69,1.49-13.97,2.84-8.22-5.56.68-3.86,1.73-4.85,5.71-4.14-2.48-1.02-2.98-2.93-2.19-5.3-2.22-.64-4.49-1.19-6.82-1.66-8.92-3.66-.54-11.37,4.51-5.48.92.19,1.92-.07,3-.8,1.63-.07,2.98-.57,4.07-1.5l-13.89-.5-4.71.64c-4.58-2.5-5.09-2.15-1.52,1.03,6.19.14,4.06,7.6-1.71,4.9l-.97.16c-3.01,1.97-2.04,2.78,2.92,2.45,5.97,1.55.75,5.36-2.96,5.9-4.59.67-10.2.27-8.06-5.64-4.67-.78-5.02-3.33-1.05-7.64,1.4-.74,2.98-1.14,4.75-1.2.77-.68.21-.71-1.68-.08-.96-.22-1.87-.58-2.73-1.08-2.2.84-4.11.66-5.73-.54-1.47-.5-2.83,0-4.07,1.46-1.87.54-3.83.35-5.88-.55-1.79-.27-3.66-.16-5.59.33-3.96-.7-7.47-.71-11.43-.29-1.74-.17-3.58-.58-3.83-2.54v-1.7c.23-.97,1.05-1.44,2.46-1.4,7-.05,13.99-.21,20.97-.47,3-2.58,7.58-2.51,11.07-.93,3.67-.59,7.39-1.18,11.16-1.77,6.8-1.31,13.62-1.92,20.47-1.83,1.15.81,2.37,1.17,3.66,1.07l17.15-3.27c2.46.31,4.88.76,7.28,1.35,2.09,1.7,5.11.7,4.68-2.21-1.36-2.99-3.29-7.73,1.99-7.57,3.92-1.05,7.98-1.32,11.99-1.45,1.53-.65,2.96-1.57,4.29-2.74,1.45-.61,3.03-.69,4.75-.24,3.68-.87,6.76-.27,9.26,1.78.79,2.04,1.87,3.6,3.24,4.69.94-4.03,1.55-5.85,6.32-5.95,1.62-.41,1.2-.89-.13-1.18-6.41.27-12.81.25-19.2-.07-3.65-.71-9.15-5.56-6.2-9.13,2.2-.47,4.51-.46,6.91,0,5.28-.03,3.97-4.59-.36-4.83-2.91-.26-5.82-.34-8.74-.22-4.92.26-6.33-3.76-1.24-5.67l4.68-.6c2.37-.06,2.14-2.38-.25-2.32-3.29.79-5.34.18-8.04-1.5-1.75.49-3.49.76-5.19.81-2.09-.94-4.33-1.27-6.72-.99-1.32-.47-2.53-1.14-3.62-2.02-1.17.96-2.43,1.63-3.78,2.01-4-.07-7.97.08-11.93.43-5.01-1.14-4.89-3.49-2.47-7.52.71-2.41.48-4.93-.68-7.54.48-1.09.83-2.17,1.03-3.25-1.34-.85-2.93-1.41-4.79-1.69-4.35-2.26-3.44-5.64,1.15-6.87,2.98-.8,3.7-.56,4.66,2.38l.77.07c1.33-.96,2.87-1.6,4.62-1.92,3.41-3.47,7.85-2.52,6.94,2.83.26.17,6.13-.38,6.06-.83-.78-1.32-1.09-2.9.92-2.79,3.45,1.73,7.21,1.71,11.27-.07l4.69-.36c2.1.07,2.74-1.01,1.91-3.24.57-2.77,1.12-5.53,1.66-8.28-2.23-3.17-4.34-11.27,1.99-10.25l10.39-1c1.83-.76,3.56-1.72,5.2-2.89.9-.36,7.86-.39,9.14-.29,2.14.18,3.73.33,5.09,2.15s2.98,5.93,2.27,8.29c1.28,1.07,2.16,2.34,2.63,3.82l.69-2.4c3.08-.94,3.3-1.56.67-1.86-1.87-.5-2.55-2.09-2.89-3.8-.94-4.74,3.29-5.61,7.09-5.82,7.3-.4,15.17-.54,22.48-.29,3.2.11,5.3,2.39,6.34,5.23.93,2.55,1.05,4.29-1.59,5.62.96,2.42,4.56,1.22,5.92-.32-1.47-.8-2.45-2.38-2.84-3.96-1.36-5.56,2.95-5.92,7.4-6.22,6.11-.41,12.59-.57,18.73-.52,5.12.04,6.33.1,9.45,3.98.53,1.24,4.43-2.53,4.56-2.78.35-.7-4.08-1.8-4.93-1.73-4.27.08-8.49-.08-12.67-.49-2.54-1.13-4.4-3.07-5.57-5.81-.65-.86-1.59-1.52-1.93-.17,1.89,4.51,1.79,5.86-3.43,6.48l-23.54-.11c-4.42-.44-5.88-1.35-8.11-5.08-.95-2.32-2.13-4.48-3.55-6.48l2.2,7.38c1.01,3.91-2.34,4.12-5.15,4.26-7.91-.12-15.84-.17-23.78-.15-3.28-.51-8.27-3.78-7.77-7.45.23-1.72.92-2.1,2.71-2.03,3.67,1.04,12.83,1.26,6.61-4.16-4.2-.7-8.43-.97-12.68-.83-2.36-.62-3.57-2.39-1.27-4.08,2.47-1.28,5.12-2.09,7.94-2.43,1.19-.38,1.33-.99.08-1.41l-5.87.28c-4.96-1.65-2.15-4.24,1.52-5.13,4.28-1.04,9.17-.24,12.63,2.35,2.33-2.64,7.51-6.07,9.01-.83l2.24.76c1.34,1.33,2.59,1.16,3.74-.52l1.74-.65c2.04-3.28,4.62-3.19,4.6,1.03l.45.1c-2.16-5.14,3.62-5.76,6.61-3.12,1.23,1.91,1.88,2.78,4.22,2.87,4.33-.53,8.61-.55,12.83-.06,1.97.99,4.06,1.64,6.27,1.95.27.84.48,1.69.65,2.57,2.41,1.01,4.38,2.71,5.89,5.09-.34-1.43.45-2.46,2.36-3.09,1.58-2.22,3.44-2.32,5.98-2.18,1.33-.62,2.66-.95,4-.98,1,.02,2.75-2.37,2.25-3.07-.29-.4-8.64-3.33-9.42-2.36-2.97-.26-5.84-.16-8.59.29-2.8,2.28-5.3,1.68-7.81-.58-3.12-2.8-1.33-5.31,2.47-4.45,2.54-.28,5.07-.68,7.6-1.2l6.88.06c3.84-.23-2.15-1.83-3.49-1.31-2.13.46-10.64,1.52-7.84-2.7,1.24-.6,2.13-1.44,2.69-2.51.06-.87.39-1.4.99-1.59h10.4Z"/>
        <path class="cls-3" d="M292.53,32.68c.62-.62.09-1.09-1.6-1.42l-.43-.36c-.62-1.56-.33-3.13,1.27-4.09,2.2-1.32,4.72-1.78,7.36-1.69,1.41.05,6.74-.06,5.69,1.78-.89,1.57-9.31.54-11.91,2.1.68.73,1.65.6,2.61.75,4.85.76,8.78-.07,9.14,4.47.1,1.31-.32,2.86-1.67,3.6-5.2,2.89-12.51.12-12.06-3.19.09-.66.77-1.77,1.59-1.94Z"/>
        <path class="cls-60" d="M310.43,32.68c-1.22.04.38,6.42-1.84,6.39-2.55-.03-.71-8.89.8-9.99,1.98-.07,4.08,5.16,5.77,6.19.7-2.24-2.1-7.94-1.26-8.59.77-.6,4.48,3.59,3.88,8.92-.13,1.12-1.14,3.07-2.69,2.93-1.41-.13-3.83-4.37-4.66-5.85Z"/>
        <path class="cls-33" d="M322.35,35.97c1.22.44,5.54-1.45,6.31-.17.19.31.47.99.02,1.38-2.28,2.03-6.51,4.1-9.15,1.97-1.06-.85-1.3-2.92-.6-4.04s.37-2.47.68-3.54c.56-.75,2.49-1.69,1.67-3.08-.31-.52-2.01-.62-1.91-1.68.07-.8,1.51-.6,2.2-.7,2.96-.44,9.22-1.93,9.41,1.74-2.05,1.5-5.96-.03-6.73,1.41-1.66,3.1,3.67.31,4.13,2.4.08.35.08,1.19-.5,1.3-1.38.26-2.65-.05-4.07.13-1.19.16-2.07,2.09-1.46,2.88Z"/>
        <path class="cls-60" d="M243.17,226.14c-1.62,1.76-7.45,4.33-8.69,2.44-1.75-2.67,3.83-1.65,6.49-4.67-2.77-2.73-8.35-2.85-9.17-4.98-.38-.98-.26-2.02.6-2.94,2.55-2.69,6.23-4.3,9.98-3.38.64.16.57,1.36.38,1.81-.24.58-.98,1.25-1.77,1.17l-2.28-.24c-1.47-.15-2.92,1.25-3.94,2.33l6.83,2.79c2.07.85,3.32,3.77,1.57,5.66Z"/>
        <path class="cls-67" d="M355.66,228.08c-4.42.95-1.32-6.64-2.69-9.51-3.14,1.17-3.55,8.51-5.35,9.07-.53.16-1.83.34-1.99-.39-.52-2.54-1.75-10.45.23-11.99.36-.28,1.49-.33,1.55.29l.35,4.3,2.42-3.16c.86-1.12,2.25-1.56,3.65-1.12,3.49,1.08,2.27,9.82,1.83,12.53Z"/>
        <path class="cls-63" d="M477.03,227.82c-3.74-1.7-8.16-9.97-5.57-10.32.4-.05,1.22-.07,1.45.43,1.09,2.34,2.36,4.43,4.28,6.52,1.34-3.04.06-3.78.34-7.67.06-.82,1.6-1.91,2.11-1.1.94,1.48.89,3.53,1.16,5.29.31,1.96-.14,3.96-.89,5.71-.51,1.2-1.71,1.69-2.89,1.15Z"/>
        <path class="cls-63" d="M254.99,218.59c-.29-1.05.45-3.35,1.65-2.6,1.78,1.12,3.19,7.29.25,9.69-1.21.99-2.97,1.53-4.46.72-2.87-1.55-4.2-7.27-4.15-10.16,0-.52,1.89-.81,2.05-.31.41,1.2,2.54,11.04,4.74,6.98.71-1.3.38-2.64-.09-4.32Z"/>
        <path class="cls-56" d="M299.42,218.85c-2.85,4.22-1.1,9.27-2.99,9.47-2.2.24-1.79-2.08-2.18-4.39-.36-2.14-1.54-8,1.18-7.54.62.11.52,1.01.98,1.83.76-1.62,1.64-3.4,3.62-3.52.99-.06,2.07-.18,2.78.52.45.45,1.09,1.23.97,2.19-.06.46-.38.75-.61.87-1.12.56-1.8-.85-2.81-.43-.33.14-.64.54-.94.98Z"/>
        <path class="cls-63" d="M281.01,224.3c-1.77-2.81-1.95-7.99.52-7.83,1.75.12-.54,3.99,2.54,6.79,2.66-1.39,1.77-5.23,1.57-7.5-.08-.85,1.76-1.84,2.28-1.02,1.81,2.86,1.51,6.81-.21,9.57-.78,1.25-2.17,1.82-3.44,1.89s-2.53-.74-3.26-1.91Z"/>
        <path class="cls-3" d="M502.64,229.19c-1.07-.5-1.54-2.06-1.57-3.2-.07-2.77-.14-5.43.14-8.17.53-5.22-.98-8.3.78-8.75.82-.21,1.39.27,1.66,1.19,1.58,5.37-.7,11.76.98,17.43.12.4-.12,1.08-.29,1.31-.2.29-.98.52-1.69.18Z"/>
        <path class="cls-70" d="M410.66,222.06c.07,1.67,1.12,3.03.55,4.66-.22.61-1.97.77-2.28,0-1.44-3.67-1.23-7.91.55-11.36.97-1.89,3.11-2.38,4.87-1.51.74.37,1.28,2.04.44,2.16-1.64.23-3.08.46-3.36,2.33-.17,1.12-.82,2.36-.76,3.74Z"/>
        <g>
          <path class="cls-7" d="M283.77,161.81l.64.35-5.2,28.12c1.11.33,2.31.37,3.58.12,1.79-9.26,3.49-18.57,5.08-27.91l.75-.29,1.27-5.69h11.65c-.14,1.86-.44,3.59-.75,5.32l.64.35-5.9,32.34-9.21,6.72-12.25.08-1.02-.68c-1.35-1.04-2.69-2.16-3.91-3.36-.65.99-3.77-2.7-3.78-2.96-.09-1.38.85-6.44,1.24-8.07l.86-.9c-.64-1.2-.62-2.94.69-3.72-.04-5.63,1.06-11.48,2.99-16.77.43-2.71,1.29-5.36,1.59-8.38l11.86.09-.82,5.24Z"/>
          <path class="cls-7" d="M478.61,161.83l.49,1.33-1.58,8.59c1.83-3.03,3.69-6.04,5.57-9.04l.95-.79c.97-1.8,2.51-3.42,3.45-5.45l12.04.16c-1.58,1.75-2.15,3.73-3.28,5.19l-.75,2.13-9.07,13.24,7.38,22.81c.21.74-.22.99-.84,1.28-.36.17-7.12.16-8.02.09l-.51-.67c-1.25.01-2.62-.07-3.96-.18-.73-1.67-.72-3.33-1.61-4.64-.98-1.41-1.6-3.1-1.86-5.08l-1.72-5.54c-.92,5.31-2.01,10.55-3.25,15.72-1.75.37-3.59.5-5.51.39l-.49-.67c-1.51.03-3.03-.19-4.54,0-1.04.71-2.03.94-2.42-.51l2.41-13.53.75-.28c.1-.63-.02-1.25-.37-1.86-.03-.47,1.05-7.07,1.32-7.33.22-.21.45-.35.77-.37-.26-.05-.65-.17-.64-.35.16-2.45,1.25-8.61,1.97-10.93l.75-.28,1.68-8.76,11.88-.03c-.4,1.89-.73,3.61-.99,5.36Z"/>
          <path class="cls-7" d="M463.75,163.55c.2.2.54.55.55.81.04.6-1.2,6.41-1.43,6.66-.32.35-5.11,1.25-5.9,1.3l-.61-.58c-1.01.97-3.59,1.31-4.85.7-.8,1.83-2.15-.38-1.71-1.87l.56-3.92c-1.22.05-2.4-.01-3.54-.18-.15,1.71-.35,3.46-.58,5.24,1.47,1.09,3.01,2.1,4.61,3.02l.27,1.05c.64.11,1.31.24,1.86.61,2.39,1.57,5.5,3.77,7.62,5.62.45.4.49,1.99-.41,2l.58.62c.11.5-1.8,9.52-2.08,9.94-.31.47-8.51,6.43-9.12,6.65-3.97.09-7.95.12-11.93.11l-1.33-.67c-2.18-2.09-4.61-4.03-6.67-6.44l.37-3.13-.6-.48c.04-1.22.76-5.69,2.29-4.4.14-.38.35-.64.64-.77l10.45-1.27c.18.05.36.12.48.23.44.39-.26,5.33-.57,6.05-.32.21-.5.43-.52.66,1.4-.37,3.15-.5,4.46-.31.02-.19-.12-.44-.44-.75l.68-3.64.74-.47c-.3-.3-.74-.77-.33-.91-2.68-1.86-5.33-3.75-7.96-5.66l-.4-.77c-1.39.49-3.65-1.42-3.77-2.78-.76.92-2.56-.86-2.73-1.85l1.99-10.84c.19-.77.79-1.18,1.78-1.24,2.23-.86,5.59-4.51,7.93-5.12,4.34-.9,8.28.03,12.44-.34,1.31,1.57,7.56,5.99,7.17,7.11Z"/>
          <path class="cls-7" d="M356.19,161.84c1.1.2-.18,4.19-.56,4.52-2.14.27-4.31.41-6.5.42-1.91,11.46-3.99,22.87-6.25,34.2-1.77.38-3.63.51-5.58.4l-.5-.67-6.2-.12,6.1-34.52c-.99-.27-1.84-.1-2.68-.02-.06.95-3.82.66-4.11.4-.91-.82-.64-3.87.6-4.24l1.37-5.7,25.05-.04-.75,5.38Z"/>
          <path class="cls-7" d="M328.57,161.84c.94.92.1,4.26-1.09,4.76l-5.89.18c-1.89,11.46-3.95,22.86-6.19,34.19-1.76.37-3.6.5-5.54.39l-.49-.67-6.24-.1,4.96-29.19.62-4.59c-.02-.29-.16-.58-.41-.85-.85-.03-1.43,0-2.01.06-.02,1.11-3.85.6-4.21.2-.42-.47-.07-4.42,1.07-4.36l1.2-5.39,25.16.04-.94,5.34Z"/>
          <path class="cls-7" d="M513.58,161.83c.27.04.67.19.64.35-2.11,12.86-4.68,26.1-7.26,38.83-1.76.34-3.57.45-5.42.36l-.5-.67c-1.45.03-2.64-.21-3.81,0-1.05,1.22-2.7.84-3.18-.8-.09-.29.52-4.64,1.49-4.41l-.31-2.22,3.34-19.05c.11-1.65.61-3.14,1.48-4.45-.7-2.34-.19-5.64,1.35-7.54l1.3-5.74,11.7.1-.8,5.25Z"/>
          <path class="cls-73" d="M303.16,161.85l-.69,4,3.83.17-5.99,33.51-8.98,6.52-12.98-.03-3.59-3.33c-.73-.68-1.34-1.32-1.7-2.05l13.05-.02,8.85-6.41,5.84-32.38,2.37.02Z"/>
          <path class="cls-73" d="M330.53,162.21l-.56,3.57c1.4.42,2.54.03,4.07.27l-.92,4.86c-2.21.54-4.34.36-6.71.48l-6.06,34.61h-11.7c.02-2.11.51-3.67.73-5.31l5.6-.1,6.04-34.55,6.75-.12c.11-1.51.57-2.8.8-4.07.66.05,1.55-.26,1.96.37Z"/>
          <path class="cls-73" d="M389.11,164.88c0,7.25.84,14.6.31,21.85-.31,4.21-2.41,8.27-2.34,12.91l-9.24,6.17c-4.05.68-8.74.18-12.75.12-2.26-1.34-3.68-3.74-5.38-5.29h13.03s8.79-6.47,8.79-6.47l5.58-30.88c.52.57,1.34,1.15,1.99,1.59Z"/>
          <path class="cls-73" d="M501.03,200.7l5.52-.1,7.03-38.77c2.05.15,4.13-.23,6.23.19l-7.87,43.93-11.85.05.95-5.31Z"/>
          <path class="cls-73" d="M359.28,162.1c-.49.23-1.09,1.11-1.12,1.75-.14,2.68-1,5.07-1.42,7.49-.42-.25-2.6-.58-2.75.28l-6.2,34.36-11.47.05.5-5.3,5.65-.11,6.11-34.56,6.67-.11.96-4.08c1.03.06,2.16-.25,3.08.25Z"/>
          <path class="cls-73" d="M436.21,161.9c-.42.16-1.05,1.06-1.13,1.51l-1.99,10.92,2.08,1.51c.59.67.62,1.49.1,2.48l-2.76,7.52-.8.39c-1.09-.14-1.4,3.88-1.69,4.88l-6.06,14.88-10.44.03c-.14-1.91-.3-3.69.15-5.31l4.99-.09,14.83-38.76,2.73.06Z"/>
          <path class="cls-73" d="M501.38,162.22c-.56,2.49-.91,5.02-1.35,7.54-2.47,4.37-5.2,8.62-8.17,12.73,1.56,4.27,2.78,8.6,3.67,13l-.88,4.91c.95.43,1.75.16,2.57.3l1.34,5.3h-12.59s-1.54-5.3-1.54-5.3l8.84-.1-7.6-23.5c3.59-5.18,6.81-10.42,10.57-15.27h4.47c.37,0,.64.16.66.4Z"/>
          <path class="cls-72" d="M267.46,185.34c-.53,2.86-.73,5.73-1.48,8.85l3.16,3.08c.24,1.16-.19,2.3-1.28,3.07l-8.08,5.7-19.96-.07c-1.22,0,.46-4.83.26-5.3l14.47-.08,8.91-6.32,1.97-10.35c1.18-1,2.13,0,2.03,1.41Z"/>
          <path class="cls-40" d="M462.24,186.37l-2.52,14.15c.85.09,1.28.23,1.78.17-.67,1.04-5.54,4.4-6.99,5.22l-12.89.1c-2.15-1.68-3.56-3.68-5.31-5.35l13.03-.05,8.77-6.35,2.07-10.25c1.4-1.05,2.45.87,2.06,2.36Z"/>
          <path class="cls-73" d="M288.62,162.2l-5.1,28.74c-1.73.44-3.45.26-5.16.1l5.41-29.24,4.17.02c.36,0,.61.17.68.37Z"/>
          <path class="cls-45" d="M407.88,200.31c-.1,1.93-1.14,3.73-1.93,5.67l-10.48.02c-.26-1.92-.1-3.62-.14-5.32,1.75,0,3.48,0,5.41-.14l6.72-18.25c.16-.44.53-.58.88-.51.32.07.45.34.42.84l-.88,17.68Z"/>
          <path class="cls-73" d="M478.87,195.88l-1.88,10.1-11.69-.06.74-5.23,5.57-.1,3.57-18.39c1.29,4.81,3,9.16,3.69,13.68Z"/>
          <path class="cls-30" d="M271.14,164.85c-.89,5.61-1.95,11.19-2.99,16.77-.58,1.15-2.35,2.52-2.79.68l-5.21-4.27,5.99-4.5,2.06-11.01c1.27.38,1.85,1.67,2.94,2.34Z"/>
          <path class="cls-30" d="M466.03,165.25l-2.08,11.56-.45.62c-2.27.18-4.52.48-6.76.9-2.41.54-1.41-4.65-1.03-6.11l.63-.48,6.06-1.13,1.33-7.07c.87.39,1.47,1.21,2.29,1.7Z"/>
          <path class="cls-30" d="M405.72,162.59c-1.61,5.17-3.38,10.25-5.6,15.61l.15-16.34,4.81-.02c.3,0,.52.12.58.25.07.16.06.34.06.5Z"/>
          <path class="cls-34" d="M484.04,161.91c-2.35,4.35-4.8,8.64-7.59,12.99.38-4.7,1.54-8.82,2.16-13.08l5.43.09Z"/>
          <path class="cls-71" d="M308.1,171.4c-.11-.94-.16-1.92-.03-2.99.32-.87.33-1.68.24-2.45.16,0,.42-.06.56.01.76.38-.77,5.38-.77,5.43Z"/>
          <g>
            <path class="cls-7" d="M268.21,162.52c.17.09.31.22.42.39.31.47-1.5,10.15-1.9,10.93l-5.38,4.16,4.09,3.48-.07.83c.94.57,1.16,1.12.06,1.63.24.09.64.25.62.42-.17,1.32-1.63,9.65-2.01,10.23-.3.46-8.31,6.23-8.94,6.47-4.81.3-9.64.41-14.51.31l-.51-.68-6.34-.11,7.88-44.1,20.86.04,5.12,4.91c.36.34.54.73.61,1.1Z"/>
            <path class="cls-34" d="M252.11,191.01c-1.58.32-3.06.18-4.79.07.34-2.97.94-5.68,1.63-8.61,1.64-.14,3.14-.12,4.72.02l-1.55,8.51Z"/>
            <path class="cls-30" d="M255.26,173.98c-1.64.27-3.08.19-4.8.08l1.22-8.06c1.56-.11,3.01-.07,4.75,0l-1.16,7.99Z"/>
          </g>
          <path class="cls-54" d="M268.15,181.63l-.69,3.72c-.39-.77-1.18-1.28-2.03-1.41.1-.53-.09-1.11-.06-1.63,1.09.89,1.33-.61,2.79-.68Z"/>
          <path class="cls-24" d="M456.35,171.75c.37,1.37-1.06,5.39-.34,5.91.37.27,6.57-1.24,7.95-.85l-1.72,9.56c.22-1.24-1.06-1.85-2.06-2.36.07-.36.01-1.14-.11-1.61-3.11-2.22-6.13-4.3-8.96-6.62-.83-.79-.81-3.02.39-3.34,1.55-.5,3.21-.7,4.85-.7Z"/>
          <g>
            <path class="cls-7" d="M387.11,163.28l.52,1.01-5.52,30.16-9.15,6.8-11.93.06-1.32-.68c-2.3-2.1-4.68-4.08-6.89-6.51l3.92-22.79-.53-.9,1.38-7.2c.3-.92.67-1.29,1.7-1.14,2.87-1.33,5.14-4.17,8.14-5.38l12.88-.23c1.97,2.33,5.89,5.01,6.81,6.8Z"/>
            <path class="cls-76" d="M370.05,190.98c-1.69.38-3.16.25-4.94.06l4.52-25.01c1.78-.13,3.24-.1,4.85-.01l-4.43,24.97Z"/>
          </g>
          <path class="cls-50" d="M438.93,178.62c.24.26.37.57.41.91,2.93,1.84,5.69,3.85,8.27,6.02v.41c-.12,1.24-.4,3.63-.98,4.86-1.37-.15-3.11-.08-4.46.31-.08.01-.29-.03-.28-.08l1.05-6.26-11.25,1.42c.61-3.06,3.09-7.47,3.47-10.38,1.26.91,2.46,2.01,3.77,2.78Z"/>
          <path class="cls-6" d="M451.5,172.44l-.39,3.34c-1.63-1.33-3.88-2.11-5.49-3.81-.14-1.93.41-3.93.79-5.94,1.63-.16,3.04-.07,4.7-.04.25,1.88-1.93,7.21.38,6.45Z"/>
          <path class="cls-19" d="M447.61,185.96l-8.69-6.02c-.42-.29-.4-1.25,0-1.32,3.02,1.77,5.8,3.92,8.78,6.04.39.27-.07.99-.1,1.3Z"/>
          <path class="cls-58" d="M446.64,190.82c-1.34.84-2.98.1-4.46.31-1.04-.26,5.77-1.57,4.46-.31Z"/>
          <path class="cls-65" d="M495.53,195.49c-.76-1.04-.97-2.38-1.4-3.71l-3.07-9.34,8.04-11.9c.27-.39.64-.62.93-.78l-4.51,25.73Z"/>
          <g>
            <path class="cls-7" d="M400.27,161.86l.69.32-.11,12.37,3.6-10.24,1.27-1.73c.62-1.99,1.89-3.92,2.39-6.11h9.13s-.04,5.37-.04,5.37l.67,1.45-.59,11c1.15-4.27,2.71-8.32,4.7-12.14.55-1.82,1.63-3.59,2.11-5.66l11.26-.04c-.95,1.93-1.24,3.73-1.87,5.38l.56.46c-4.87,12.99-9.88,25.92-15.02,38.78-.42.31-5.24.71-5.37-.38l-4.48-.03c-.54,0-.99-.14-1.3-.35l-.68-.34.8-17.14-6.67,17.87c-1.51.85-4.52,1.12-6.01,0-1.72,0-3.47-.03-5.37-.15-.51-4.16.31-10.46-.55-13.81l-.59-1.77c-.08-6.42-.14-12.82-.18-19.2l.46-.88v-8.4s11.09-.01,11.09-.01l.08,5.4Z"/>
            <path class="cls-34" d="M421.98,162.16c-1.63,5.42-3.5,10.75-5.42,16.02-.08-5.86.61-11.06.64-16.33.19.07,5.52-.24,4.78.31Z"/>
          </g>
        </g>
        <path class="cls-70" d="M288.59,38.44c-.11.94-2.35.93-2.66.08-.84-2.29-.51-4.54-.37-6.88.06-1.03.02-6.82,1.56-6.28.27.09.89.42.94.91.4,4.04,1.01,8.03.54,12.17Z"/>
        <path class="cls-57" d="M492.24,227.92c-.05.55-1.05.5-1.39.46-1.89-.2-1.43-6.37-1.51-8.2-.03-.7.02-1.38.42-1.71,3.33-2.76,2.61,8.11,2.48,9.45Z"/>
        <path class="cls-69" d="M292.53,32.68c-.03-1.57-1.52-.51-2.02-1.78,1.94,1.24,10.36.2,11.71,2.7.13.24.19.97-.24,1.13-2.04.78-8.31,2.4-9.76.29.65-3.29,5.34,2.5,8.47-1.03-2.61-1.52-5.45-1.88-8.16-1.31Z"/>
        <ellipse class="cls-27" cx="490.75" cy="212.95" rx="1.47" ry="1.44"/>
        <path class="cls-66" d="M565.7,80.53c.69.47.17,1.65-.23,2.15-.33.42-1.42,1.06-1.77.49-.43-.72-.11-1.58.08-2.08.18-.47,1.07-1.14,1.92-.56Z"/>
        <path class="cls-87" d="M561.75,86.55c-.55-.73.14-1.93,1.12-1.93.67,0,.74.71.69,1.05-.1.59-.55.95-1.81.89Z"/>
        <path class="cls-62" d="M560.51,82.94c-.45.05-.88-.25-1.08-.41-.27-.22-.42-.85-.13-1.24.41-.53,1.21-.35,1.6.1.31.36.31,1.46-.4,1.55Z"/>
        <path class="cls-15" d="M253.34,7.19c.28.61-.55.88-.89.92-.45.06-1.61.3-1.54-.69s2.12-.9,2.42-.23Z"/>
        <ellipse class="cls-10" cx="540.89" cy="54.11" rx="1.01" ry=".99"/>
        <g>
          <path class="cls-73" d="M428.26,110.18c-2.25,3.34-3.57,7.14-4.15,11.22-.24,1.68-2.63,6.81,0,6.19l.53.95c-.53,2.32-1.18,4.6-1.95,6.85-.86,1.55-1.12,3.76-1.33,5.45-2.04.34-3.33,1.97-4.96,3.29l-9.46,7.68c-2.13,1.73-4.37,1.78-6.83,1.02-1.86-.57-3.86.64-5.82.5-3.26-.22-6.58-1.32-9.74-.33-1.54.48-2.87,1.71-4.57.77-.99-.54-2.08-1.74-3.42-1.69-5.44.2-7.7.98-10.66-5.16,2.52.35,5.59-.96,7.92,1.05,2.9,2.51,4.29-1.2,8.72-.7l6.58.74c1.78.2,3.74-.96,5.41-.5,2.67.75,5.03.66,7.17-1.2,2.89-2.5,5.84-4.86,8.96-7.14,1.31-.95,2.3-2.47,3.75-3.05,2.37-.95,1.96-2.34,2.92-6.84l3.18-14.83c.49-2.26.61-4.4,1.52-6.33,1.15.02,2.33-.03,3.56.16.72-.59,1.51-.47,2.14-.08.48.29.87,1.41.5,1.95Z"/>
          <g>
            <path class="cls-21" d="M322.63,49.96l.19.94c-6.56,12.35-13.32,24.61-20.27,36.78l1.21,4.89c1.46,1.61,1.74,3,.84,4.17,2.17,10.72,4.6,21.29,7.3,31.71l1.14,2.31c.63,2.41,2.69,11.35,2.06,13.16-.52,1.49-3.31.91-4.5.55-4.31.5-8.66.7-13.05.59-2.7.35-5.41.59-8.13.7l-.76-.73-2.81-.27c-.76-.07-1.64-.77-1.82-1.51-1.1-4.58-1.45-9.11-2.28-13.73-.41-2.28-1.51-4.32-1.43-6.73.05-1.37-.02-2.73-.76-3.73-.27.03-.69.03-.75-.15-.24-.8-2.69-10.08-2.17-10.21.83.41.83.34-.03-.11-.29-.27-.69-7.43-.51-7.78.15-.29.35-.52.65-.66,2.03.34,1.95-2.39,1.82-3.94-.22-2.68-3.35,2.49-3.42,3.39.87,4.72.72,9.41-.45,14.07-.45,3.28-.81,6.5-1.1,9.67,3.57-.75,3.53,4.03-.22,3.04l-2.06.91c-4.54,0-5.33.77-2.39,2.32.35,1.02-.13,1.98-1.46,2.9-.52.36-.4.78.36,1.26l.16,1.15c1.32-.66,2.37-.58,2.82.95.74,2.51.25,12.32-4.3,9.8-5.53.05-11.11.16-16.75.34l-1.06-.38c-3.06.24-3.92.99-5.44.04-1.27-.79,1.59-14.39,1.78-15.93l1.13-9.18c.36-2.94.83-5.71,1.25-8.68l1.17-8.29c.88-6.22,2.19-2.89-.23-8.32-1.05-2.35.09-4.66,2.52-5.43,1.03-4.56,1.37-8.94,1.93-13.47.53-4.28,3.57-14.48,3.08-16.77-.34-1.58.02-2.71.1-4.15.15-2.78.04-5.3,1.45-7.82.4-.71.46-1.48,1.72-1.43,8.18.29,16.24-.19,24.4-.39,1.34-.03,1.28,2.59.72,3.3-.51.65-.03,1.66-.05,2.21l.65.87c-1.27,7.52-2.38,15.11-3.3,22.78,2.67-5.35,5.09-10.82,7.26-16.4l.78-.38c.15-1.37,5.11-9.85,4.68-8.77l1.35-3.39c1.59-.92,3.34-.78,5.12-.82l23.46-.49c.63-.01,1.13.3,1.28.82.08.28-.13.75-.41,1.13l-2.48,3.31Z"/>
            <path class="cls-73" d="M318.01,136.76c.15.59.38,1.43.41,2.03.16,3.2,1.67,6.48,1.55,9.83-.06,1.57-2.5.54-3.45.57-2.33.08-5.58.66-8.1.45-5.97-.49-9.7,1.25-16.69.45-3.19-.37-2.33-2.89-3.07-5.06,3.16.31,6.36-.64,9.69-.68l9.67-.11c1.09-.01,2.33-.76,3.42-.3.73.31,2.94.57,3.1-.45.15-4.17-1.62-8.14-2.11-12.26-.14-1.17-.98-1.75-1.21-2.71l-4.62-18.91c-1.06-4.35-2.11-8.51-2.67-12.9-.06-.47.76-1.04.65-1.58-.14-.73-.8-.98-1.14-1.61-.83-1.56-.87-3.57-1.47-5.25-.37-1.03.3-1.34.7-2.06l12.21-22.05,4.75-8.53c1.09-1.97,1.75-3.99,3-5.67l7.24.04c3.09.02-1.69,4.83-1.78,5l-4.6,8.81-10.08,18.28c-2.03,3.69-3.8,7.23-6.23,10.71.71,2.13.79,4.22,1.63,6.07.3.65,1.11.83,1.08,1.67-.01.42-.69,1.17-.62,1.57,1.15,6.96,2.9,13.74,4.58,20.68.93,3.85,1.65,7.51,2.84,11.16.33,1,1.08,1.92,1.32,2.81Z"/>
            <path class="cls-73" d="M279.56,119.06l-1.2,8.22c-.11.75-.61,2.12.66,2.07.55-.02,1.09-.64,1.45-.04.39.65.67,1.16.27,1.58-.49.52-1.23.01-1.68.14-2.09.61-4.05,1.29-6.38,1.33-.61,0-.79.8-.73,1.12.24,1.32,1.7,1.1,1.81,2.11.12,1.07-2.36,2.07-2.01,3.05.16.46,1,.57.95,1-.13,1-.91,2.11.15,2.52.91.35.61-1.68,1.73-1.65,2,.05,1.01,4.33.88,6.09-.1,1.48-.16,3.12-1.5,3.97-.82.53-1.59-.45-2.36-.49-2.17-.11-4.23.39-6.37.45l-11.42.32c-.39.01-4.69,1.34-5.53-.19-.57-1.04.86-2.46.44-5.03,3.75-.29,7.52-.41,11.45-.49,2.2-.04,4.37-.6,6.55-.12.54.12,1.29.84,1.74.33.24-.27.95-.64,1.09-1.19.73-2.78.96-5.78.54-8.65-.06-.38-1.34-.31-1.64-.09s-.24.93-.58,1.33c-.27.31-.7.06-.82-.13-.68-1.01.63-1.49.22-2.52-.1-.26-.96-.51-.93-.8.13-1.26,1.61-1.88,2.24-2.95-.34-1.01-2.4-1.11-2.07-2.55.36-1.54,4.02-.38,5.76-1.64s2.77.53,3.18-.81c.14-.46.07-1-.37-1.35-.58-.47-1.89.5-2.16-.2-.39-1.04.46-3.84.65-6.16.23-2.74.57-5.38,1.2-8.06,1.2-5.09-1.11-8.85-.09-10.69l1.83-3.29c.32-.58,2.05-1,2.4-.46,1.01,1.57-.29,5.43-.15,5.24-.44.58-1.83.09-2.07.66.05-.12.85,9.28.52,7.86l2.33,10.2Z"/>
            <path class="cls-73" d="M289.63,58.18c-.14.7-.25,1.55-.68,2.32-2.38,4.32-3.75,8.91-5.8,13.36-.75,1.63-2.44,2.59-2.61,4.67-.05.67-1.02,1.63-1.55,1.52-.07-1.43,1.05-2.29,1.39-3.42,1.12-3.82,1.23-7.72,1.68-11.68.57-5.04,1.93-7.19,2.19-13.63,1.37.13,2.83-.5,4.34-.26,1.73.28,1.56,2.13,1.15,3.43s.13,2.55-.1,3.7Z"/>
          </g>
          <g>
            <path class="cls-21" d="M475.36,51.27c.07.57-.27,1.04-1.02,1.42l-.2,2.98c-1.62,5.11-3.11,10.25-4.55,15.41-.19.69-1.25,5.82-.96,5.48,2.99-4.38,5.86-8.85,8.63-13.39l1.26-.94,1.87-4.03c.49-.18.92-.52,1.28-1.02.96-1.98,1.67-3.13,3.27-5.02.84-.99,1.2-2.33,2.43-3.02,1.08-.6,2.02.13,3.06.32,2.02.38,11.76.42,13.35.06,5.26-1.19,4.41,1.59,5.97,2.06,2.17.65,5.35-1,6.33.42.32.46-1.23,4.23-1.46,4.45l-.04.97c-1.66,1.3-3.21,2.72-4.64,4.25-6.6,9.76-13.77,19.03-21.52,27.8-1.83,2.59-.8,7.14.53,9.84l.73,9.84.85,3.08,2.06,25.18c1.47,1.76,2.35,9.54,1.47,11.17-.49.91-2.5.96-3.45.94l-4.64-.88c-5.59.02-11.12-.46-16.59-1.44l-.88-.6c-1.25-1.29-4.32-.1-4.72-.94.01.03-1.15-6.34-1.1-5.85l-1.22-14.62c-.03-.33-.16-.55-.3-.69l-.42-.2c-.62-5.6-1.02-11.29-1.2-17.06-1.84,5.4-3.32,10.95-4.43,16.65-1.73,5.05-3.14,10.06-4.1,15.19-.48,1.4-1.64,4.77-2.62,5.66-.61.56-1.37.68-2.18.59-5.97-.9-12.02-1.48-18.14-1.72l-.84-.7-3.2-.09c-.92-.02-2.79-.86-2.66-1.98l-.62-.61c-.04-1.19.54-4.88,1.95-4.85.94-2.76,1.72-5.55,2.35-8.38l-.93.58c-.75,1.46-1.75.36-1.92-1.02.8-4.94,2.15-9.72,4.05-14.36.37-1.13,1.04-1.81,2.01-2.04.25-.16.53-.32.66-.07.11.22.19.56.68.85,1.95-2.67,2.62-6.1,3.32-9.49,1.56-7.45,3.61-14.46,5.99-21.7,2.67-8.13,4.74-16.15,6.97-24.38.53-1.94,1.21-3.55,1.64-5.6.29-1.36.31-4.62,2.62-4.42,1.57.14,3.27,1.17,5.17,1.05,3.61-.23,7.14.14,10.73.43,2.78.22,7.15-.07,9.06,1.36.61.81.27,2.18.25,3.06Z"/>
            <path class="cls-73" d="M468.51,146.6c4.4.71,8.82,1.06,13.45,1.22,1.8.06,3.77-.03,5.53.34,2.04.43,3.94,1.25,6.04.12-.14-2.97.46-6.25-.73-8.83l-.87-1.9-2.09-25.26c-.09-1.15-.78-2-.87-3.28l-.6-8.69c-.25-3.54-1.4.34-1.59-8.99-.02-1.15,1.02-2.2,1.72-2.99l7.07-8.05,13.38-18.47c1.59-2.19,3.85-3.63,5.67-5.37,1.21,1.48,3.75-.31,6.78.51.23,2.35-.92,4.38-2.71,5.89-6.95,5.83-11.66,15.8-17.11,22.01l-7.37,8.4c-.84.95-2.19,2.27-2.06,3.65.16,1.79.04,3.68.44,5.41.3,1.32,1.12,2.28,1.22,3.81.23,3.44.24,6.94.97,10.25.2.93.68,1.56.76,2.66l1.24,16.7c.19,2.59.07,5.07.68,7.58.11.45.71.77.76,1.29l.78,9.11c-3.06,1.03-4.77-.33-10.06-.57l-6.9-.31c-6.79-.31-6.8-1.42-12.75-1.59l-.75-4.65Z"/>
            <path class="cls-73" d="M461.16,124.5l-3.67,12.02c-2.47,8.08.07,4.73-3.98,12.74-.82,1.62-3.26.38-4.53.24-1.4-.15-15.55-1.45-15.8-1.44-1.51.07-2.9.44-4.38.06s-2.15-1.36-1.92-2.91c.12-.81.39-1.58.34-2.29,1.57.04,3.13.07,4.88.23l11.64,1.02c1.12.1,3.6,1.23,4.38-.2,3.81-6.95,2.03-7.96,4.88-15.64,2.4-6.48,3.6-15.45,5.29-20.04.37-1.02,1-1.54.82-2.94-.08-.59.65-1.57.96-2.35.26,6.56.52,13.05,1.18,19.75.06.65.06,1.3-.08,1.75Z"/>
            <path class="cls-68" d="M475.36,51.27c-.22,1.71,2.15-.31,5.17,1.71,1.43.95.95,3.43-.36,4.78.97.5.83-.73,1.5-.57-.86,1.77-1.83,3.61-3.15,5.05-.74-.72-.03-3.11.34-4.16,3.15-4.3.11-5.06-3.93-4.94l-.59-.44c.19-.62.32-1.26,1.02-1.42Z"/>
            <path class="cls-73" d="M478.53,62.23c-2.38,4.85-5.84,9.14-8.77,13.86-1.11,1.78-1.96,3.49-3.48,4.96-.32-1.3.72-1.9,1.18-2.71.78-1.36.34-3.03.73-4.56,1.81-7.21,4.01-14.14,6.16-21.08.98-.9,5.51.21,6.07.97,1.01,1.4.38,2.52-.33,3.5-1.09,1.52-.85,3.61-1.56,5.07Z"/>
            <path class="cls-4" d="M422.69,135.4c.07-2.51.92-4.87,1.42-7.8.1-.59.5-1.08.55-1.9.06-.89,1.24-2.09,2.41-2.32-2.67,6.15-.68,5.33-4.39,12.02Z"/>
          </g>
          <g>
            <path class="cls-73" d="M401.58,76.49c-.51.1-1.76-.31-2.12.33-.44.8-.71,1.87-.92,2.82l-4.2,19.73c-1.24,5.81-2.76,11.29-3.64,17.16-.18,1.22-.76,2.33-.83,3.57-.1,1.68-.31,3.21-.75,4.67-1.74-.51-3.93,1.11-7.09-.53.37-.83.29-1.96.8-2.8,1.35-2.17,1.29-4.47,1.75-6.85l2.06-10.63,6.38-29.34c.21-.95.65-2.22.88-2.96,1.16-1.34,2.91-.27,4.2-.17,1.61.13,3.2-.09,4.41.76-.09,1.62-.7,2.92-.94,4.23Z"/>
            <path class="cls-73" d="M435.25,65.62c1.2.86,1.61,2.5,1.96,3.96-1.02,1.86-1.44,3.78-1.31,5.9-2.27,4.63-.91,10.49-3.61,14.85-1.22,1.98-3.44,1.36-5.36,1.21-4.04-.32-7.87.76-11.8,1.25l-8.67,1.08c-.59.07-1.21-.19-1.42-.47-.89-1.17.55-3.76.38-5.28l8.52-1.21c2.55-.36,5.13-1.05,7.73-.65,1.69.26,3.86.63,5.05-1.07,2.46-3.52,1.66-8.51,3.56-14.9.44-1.49.12-3.09.88-4.57.36-.7.8-1.76.52-2.48-.33-.81-.24-1.15.26-1.02,1.12,1.13,2.23,2.27,3.3,3.4Z"/>
            <g>
              <path class="cls-21" d="M425.58,55.07c1.86,1.61,3.51,3.43,4.95,5.44.92.92,1.3,1.83,1.15,2.73.38-.06.64.15.78.65-.96,3.32-1.75,6.71-2.36,10.18l-1.13,7.36c-1.23,5.09-3,6.47-8.39,5.39-4.9.49-9.75,1.11-14.57,1.89l-.59-.6c-1.84.26-3.83.31-5.86.21-.31-2.74.5-5.22,1.32-7.78.46-1.44.48-2.78.71-4.05l-.58-.62.78-3.14c-1.18-.33-5.93-1.21-6.77-1-.15.04-.44.18-.53.29-3.66,15.39-7.17,31.06-9.84,46.62-.64,1.71-1.22,3.44-1.75,5.17,1.75.59,3.66.65,5.73.18l.5.77c.47.14,1.12.95,1.85.41.34-.25.76-.75.92-1.43,1.06-4.46,1.74-8.91,2.54-13.46.27-1.54.67-4.79,2.23-4.98l18.78-2.24c1.69-.2,3.18-.17,4.77-.23.76-.03,1.77-.37,2.28.26.36.44.92,1.68.47,2.25-.76.97-.54,2-.91,2.8l.39.86c-1.84,8.15-3.56,16.32-5.17,24.49-.34,1.8-1.52,3.08-3.52,3.84-3.89,3.45-8.13,6.86-12.32,10.07-2.3,1.77-5.2,1.25-7.8.69-1.44.28-2.89.49-4.34.62-3.25-.61-6.42-.77-9.51-.48-2.66,1.67-4.95,1.64-6.87-.08-1.9-.7-3.97-.86-6.22-.48l-.78-.74c-1.84-.25-3.28-1.74-4.32-3.28-2.07-3.04-3.87-6.05-6.27-8.84-.41-.47-.94-.67-1.19-1.14l-.66-.77c1.31-7.82,2.85-15.58,4.65-23.27l.5-.12-.22-.87c1.45-6.19,2.62-12.36,3.52-18.51l.51-.99c-1.07-.13-.35-2.87.69-2.83.66-2.06,1.33-4.15,2-6.27.59-4.28,1.37-8.58,2.35-12.83.21-.9,1.75-7.14,2.09-7.32.1-.05.27,0,.45.1l2.51-1.51c3.14-1.9,5.85-4.54,8.44-7.3.79-.84,1.8-.97,2.62-1.55,3.2-2.28,7.65-.76,7.77-1.89l.16-1.49c.03-.26,2.18-.71,2.38-.14.44,1.18-.82,1.89-.17,2.51.25.24.8.68,1.35.65l11.1-.5c3.7-.17,7.28-.22,11.03-.08,4.88.19,6.05,4.19,8.38,6.38Z"/>
              <path class="cls-86" d="M435.25,65.62c-1.16-.84-2.21-1.82-3.34-3.05-.25.17-.13.46-.22.67-1.65-4.2-4.67-5.01-6.11-8.17,2.52-.21,4.79,6.13,9.05,9.43.4.31.6.74.62,1.12Z"/>
              <path class="cls-11" d="M373.2,73.77c.37.66.34,1.51-.07,2.57l.06.84c-.38-.25-.75-.49-.85.22-.12.87,1.26.79.83,1.67-.4.82-2.27-.16-3.41,1.35-.47.62.03,1.28-.12,2.12-.16.91-1.42,1.76-2.35,1.84l1.02-5.14c.62-3.13-.07-3.32,4.9-5.46Z"/>
              <path class="cls-39" d="M373.19,77.18c-.27-.14-.56-.3-.72-.71.07-1.03.25-1.94.73-2.69,1.03-.1,1.25-3.21,3.45-3.82.87-.24,1.28.93,1.21,1.55-.05.45-.61.97-1.14,1.31-3.12,2.04-1.17,1.77-2.87,4.46-.11.18-.41.05-.65-.11Z"/>
            </g>
          </g>
          <g>
            <g>
              <path class="cls-21" d="M365.58,45.94l.58.54-7.73,32.72-.17,3.55c-1.32,1.59-1.61,2.93-1.51,4.91-.75,2-1.35,4.03-1.81,6.11.12,2.49-.56,4.18-2.05,5.09.78.76.84,1.87.18,3.32.05,1.42,0,2.85-.16,4.28-2.38,9.4-4.43,18.93-6.15,28.59-.44,5.51-4.21,6.57-8.74,4.54-3.79-.18-7.67-.07-11.65.32-.7.09-1.26-.23-1.7-.75-1.07-.08-2.11-.92-3.54-.46-.89.28-1.92.2-2.72.11-.97-.24-1.25-1.45-.41-2.03-.13-.73.77-1.17,1-1.87,1.17-3.55,1.39-7.15,2.14-10.83l4.24-20.64c.79-3.86,1.29-7.52,2.42-11.29,3.01-10.07,3.36-18.06,5.73-26.7l3.54-12.86c.87-3.15.52-6.48,1.67-9.35l.86-2.14c5.64-1.57,5.47.18,9.32.09l12.49-.28c1.4-.03,2.53,1.09,4.19.73.84-.18,1.25,1.74.7,2.22-.8.7-.56,1.4-.73,2.09Z"/>
              <path class="cls-28" d="M353.41,88.23c-.28.71-1.27.21-1.48-.16-.16-.28-.44-.72-.05-1.13.22-.23.62-.54,1.29-.77.26.35.54,1.27.24,2.06Z"/>
            </g>
            <g>
              <path class="cls-73" d="M369.34,58.15c-.18.81-.08,1.4.3,1.76l-.72,1.28c-1.82,8.25-3.63,16.49-5.44,24.72l-.34.39-.69,2.83c-.58.98-.81,2.11-.71,3.39l-2.04,10.13c-.53,1.11-1.08,1.64-2.34,1.29,1.41.1,2.39,1.62.91,2.13l-.46,1.52c.23,1.54.21,3.07-.06,4.58-1.83,6.89-3.25,13.81-4.25,20.77l-.51.16c-.37,2.72-.93,5.4-1.67,8.04l-.87,3.21c-6.55,2.29-4.3-.88-9.86-.43l-4.42.36c-2.8.23-5.31.38-8.03-.43-1.18-.35-2.61.81-3.8.22-2.09-1.03.64-4.36.36-4.94,3.61.27,7.29-.22,11.05-.5s4.79,2.78,9.25.19c1.46-4.12,1.84-8.29,2.74-12.5l3.24-15.21c.46-2.16,1.41-4.1,1.45-6.37.02-1.31-.23-2.63.27-3.82.21-.49.33-.95.18-1.23-.32-.57-.91-.3-1.52-.48-.46-.13-.05-1.08.26-1.29.28-.19,1.22.43,1.46.22,1.24-1.04.83-3.12,1.2-4.57l1.06-4.09c.27-1.03,1.02-1.95.81-3.14-.29-1.67.75-2.67,1.5-3.88.2-1-.14-2.29.12-3.43l5.72-24.64,2.1-8.49c1.16.2,2.24.48,3.45.99.71.3,1.9-.32,2.45.21.95.92-.05,1.96-.27,2.9l-1.87,8.11Z"/>
              <path class="cls-64" d="M372.53,58.48c.54-.33-4.15,2.83-3.29,3.05.04,1.41-.26,2.51-.83,3.8-2.12,4.87-1.98,13.62-2.77,15.34-1.86,4.11-.93,5.03-2.51,5.64.28-1.14.09-2.27.4-3.59l2.7-11.34,3.11-13.23c.1.54.04,1.12.28,1.7,1.13-.65,1.9-1.25,2.9-1.37Z"/>
              <path class="cls-42" d="M358.62,109.52l-2.71,11.54-1.51,8.15c-.29,1.57-.36,3.05-.27,4.48-.13-.25-.6-.49-.99-.68-.18,1.75-1.14,7.4-1.84,8.15l2.38-12.67,1.58-6.93c.58-2.55.79-5.08,1.73-7.56,1.41-3.74-.32-6.68,1.26-7.91l.45.17c-.25,1.14-.27,2.23-.08,3.27Z"/>
              <path class="cls-59" d="M358.62,109.52c-1.13.03-.41-2.89-.36-3.44.03-.33.08-.82-.06-1.08-.22-.43-.84-.18-1.32-.36-.71-.25-.16-.94.04-1.32.23-.44,1.11.26,1.4.06,1.52-1.08.96-3.37,1.48-4.97.48-1.49.53-2.88.89-4.3.19-.75,1.02-1.38.81-2.65-.13-.83.14-2.11.94-2.31-.53,2.15-.36,4.6-.74,7.02-.74,4.65-2.04,8.98-3.07,13.35Z"/>
              <path class="cls-31" d="M358.82,91.72c.3.95.17,1.45.09,1.87-.07.38-.64.32-1.1.27-.38-.04-.75-.52-.78-1.22-.03-.66,1.59-1.53,1.79-.91Z"/>
            </g>
          </g>
        </g>
        <g>
          <path class="cls-36" d="M261.58,25.07c3.04-.1,14.81,1.06,12.01,6.45-.69,1.33-2.85,1.65-4.07,1.06.25-.91,1.46-1.05,1.54-1.97.11-1.39-8.4-2.22-9.67-2.34-.36,3.29-.49,6.25.08,9.58,4.7,1.15,9.66.7,14.08-1.34,3.68-1.7,5.26-5.3,3.66-9.11-.99-2.37-2.63-4.51-4.78-6.23-7.48-6.01-16.85-9.11-26.55-9.25-1.85-.03-3.42.19-4.91.85.75.5,1.45.45,1.68,1.15-.89.46-2.41.55-3.03-.35s.33-2.01,1.15-2.51c2.25-1.37,4.81-1.6,7.54-1.55,7.89.13,15.54,2.31,22.18,6.43,5.12,3.17,12.41,9.71,11.08,16.12-.76,3.65-3.73,6.13-7.1,7.66-4.67,2.11-10.02,1.92-14.98,1.03-.58.95-1.02,1.96-2.09,1.85-2.68-.26-.53-3.18-3.36-4.41-3.23-1.41-5.94-3.62-7.85-6.5-2.64-3.97,7.08-5.69,9.56-6.32.36-2.26.05-4.75,1.19-6.87,2.48-.45,1.99,4.85,2.65,6.59Z"/>
          <path class="cls-50" d="M257.25,36.27c-1.92.13-8.98-4.14-8.52-5.68s6.94-2.17,8.79-1.99c.05,2.51.23,4.68-.27,7.67Z"/>
        </g>
        <g>
          <path class="cls-56" d="M344.73,28.49c1.34,3.94-.41,7.77-3.77,9.86-1.78,1.11-3.57,1.82-5.92,1.76-1.74,3.65-2.44,7.6-3.28,11.7-5.95-1.54-.82-11.29-.36-14.24.28-1.83-1-3.81,0-5.94,1.14-2.46,2.31-5.35,5.09-6.65.36,2.86-4.33,7.09-2.78,8.84l3.66-4.12c1.29-1.46,2.87-2.85,4.88-3.3,1.11-.25,2.11.97,2.49,2.08Z"/>
          <path class="cls-2" d="M343.26,30.49c-.17,3.26-2.83,5.33-5.94,5.62,1.01-2.75,2.88-4.76,4.9-6.75.38-.38,1.08.44,1.05,1.12Z"/>
        </g>
        <g>
          <path class="cls-16" d="M446.07,224.81c-2.57.98-7.14,3.54-9.26,1.48-2.64-2.57.34-8.27,5.01-9.72,1.47-.46,2.65.19,4.09.67-.06-2.32-1.4-6.47,1.27-6.54.55-.02,1.18.66,1.14,1.39-.09,1.68.33,3.12.62,4.74.42,2.36-.07,4.7.19,7.09.13,1.21.7,2.49.12,3.67-.3.62-1.73.56-2.16.08-.67-.76-.42-1.69-1.01-2.84Z"/>
          <path class="cls-5" d="M445.52,220.89c-1.49,2.09-4.07,3.21-6.83,3.07.21-1.94,1.33-3.56,2.97-4.54,1.88-1.12,2.64.92,3.86,1.47Z"/>
        </g>
        <g>
          <path class="cls-3" d="M384,226.64c-2.15.81-4.29,2-6.63,1.77-1.83-.18-3.19-1.02-3.35-2.95-.17-2.1.93-4.25,2.31-5.5,1.8-1.64,4.19-1.87,6.63-1.72l-.41-6.19c-.04-.64.32-1.23.73-1.47.54-.32,1.08-.31,1.54.06.58.46.22,1.19.34,1.83,1.01,5.49.89,9.89,1.76,13.94.21.97-.35,1.51-1.04,1.67-.94.21-1.3-.63-1.86-1.45Z"/>
          <path class="cls-55" d="M383.63,224.59c-1.57-.29-6.39,2.05-6.57.36-.1-.93.78-2.3,1.43-2.9,1.32-1.21,3.38-1.06,4.76-.25.39.87.48,1.54.38,2.79Z"/>
        </g>
        <g>
          <path class="cls-60" d="M466.38,225.67c.73.36-.18,1.82-.92,2.14-2.46,1.08-5.67,1.42-8.13-.16-2.09-1.34-3.15-4.88-1.95-7,.94-1.66,2.16-3.19,3.52-4.4,1.66-1.48,4.12-.79,5.62.5,1.4,1.21,2.43,3.44,1.28,5.29-1.51,2.44-4.55,2.49-7.46,2.13.71,3.47,5.74.36,8.04,1.5Z"/>
          <path class="cls-44" d="M463.36,220.48c-.82,1.72-3.48,1.61-4.96,1.06.36-1.29,1.12-2.51,2.28-3.24,1.06-.67,3.25.98,2.67,2.19Z"/>
        </g>
        <g>
          <path class="cls-22" d="M421.96,222.84c-.14,4.18,6.99.02,8.56,1.32,1.38,1.14-2.48,4.42-7.92,3.33-2.51-.5-4.08-2.72-3.6-5.27.43-2.28,1.4-4.68,3.18-6.28,1.62-1.45,4.37-1.56,6.22-.61s1.92,3.07.97,4.68c-1.45,2.45-4.43,3.47-7.42,2.82Z"/>
          <path class="cls-13" d="M427.12,217.83c-.15,1.91-2.68,3.16-4.63,2.65.19-1.71,2.62-4.24,4.63-2.65Z"/>
        </g>
        <g>
          <path class="cls-22" d="M319.49,220.8c-.25,3.4-4.14,5.92-7.28,4.75-3.83-1.42-3.77-11.48-3.72-14.83,0-.69.52-1.13.93-1.27,2.99-1.04.88,3.45,2.14,6.56,1.8-.91,3.66-1.11,5.3-.21s2.82,2.57,2.64,5Z"/>
          <path class="cls-75" d="M313.58,222.94c-1.2-.48-1.92-2.84-1.47-3.92s2.52-1.3,3.4-.82c1.2.65,1.18,2.3.71,3.24-.35.71-1.38,1.99-2.64,1.49Z"/>
        </g>
        <g>
          <path class="cls-63" d="M273.67,218.69c1.89,2.31,1.97,4.97-.25,7.04-1.12,1.05-2.52,1.58-4.3,1.25-3.23-.6-3.84-5.26-4.18-7.92-.36-2.84-.64-5.55-1.22-8.36-.11-.55.27-1.13.58-1.26,2.58-1.05,2.37,4.95,3.03,7.39,2.63-.96,4.68-.16,6.34,1.87Z"/>
          <path class="cls-78" d="M271.86,221.55c.4.75.08,1.58-.37,2.02-.33.32-1.04.92-1.66.44-1.51-1.18-1.77-3.26-2-5.15,1.78.05,3.19,1.11,4.04,2.69Z"/>
        </g>
        <g>
          <path class="cls-60" d="M332.73,222.8c-.99,1.13-1.51,2.13-2.58,3.2-1.34,1.34-4.84,1.75-5.58-.48-1.06-3.2.97-6.79,3.41-8.85,1.55-1.31,4.18-1.04,5.16.64l4.29,7.35c.37.63.47,1.5.11,1.91-.48.55-1.57.72-2.22.19-1.21-1-1.51-2.42-2.59-3.96Z"/>
          <path class="cls-80" d="M327.3,224.36c-.81-2.22.71-4.38,2.67-6,.85,2.32.11,4.94-2.67,6Z"/>
        </g>
        <g>
          <path class="cls-60" d="M285.16,22.85c-.5.01-.86.59-1.14.63-.26.04-1.02-.1-.95-.55.23-1.37-.74-2.27-.99-3.4-.58-2.65,1.8-4.74,3.9-5.84,2.73-1.43,5.35-1.33,7.8.35.86.59,1.99.56,2.32,1.71,1.03,3.63-5.84,6.96-7.01,6.99l-3.94.1Z"/>
          <path class="cls-79" d="M294.16,16.29c1.46,2.01-4.74,5.08-7.55,3.99.83-1.85,6.18-5.89,7.55-3.99Z"/>
          <path class="cls-1" d="M287.33,15.72c-1.3,1.17-1.99,2.38-3.45,3.1-.1-1.96,1.56-3.29,3.45-3.1Z"/>
        </g>
        <g>
          <path class="cls-33" d="M402.9,227.71c-2.7,1.2-3.79-3.5-4.55-4.34-.96,1.14-2.02,2.1-3.54,2.71-1.16.47-3.08.27-3.62-.98-1.52-3.49,1.34-7.7,3.7-8.21,1.26-.27,1.94.52,2.97.83,1.11.33,1.73.14,2.13,1.4.65,2.03,1.43,4.02,2.71,5.84.45.64,1.32,2.25.2,2.75Z"/>
          <path class="cls-46" d="M396.62,219.87c-.5,1.43-1.38,2.95-2.86,3.45-.36-1.36.61-2.17,1.34-3.05l.55-.66c.13-.16,1.06,0,.97.26Z"/>
        </g>
      </g>
    </g>
  </g>
</svg>