<?xml version="1.0" encoding="UTF-8"?>
<svg id="Capa_2" data-name="Capa 2" xmlns="http://www.w3.org/2000/svg" viewBox="0 0 117.64 208.46">
  <defs>
    <style>
      .cls-1 {
        fill: #fbc681;
      }

      .cls-2 {
        fill: #2d2911;
      }

      .cls-3 {
        fill: #050404;
      }

      .cls-4 {
        fill: #f4e126;
      }

      .cls-5 {
        fill: #e31716;
      }

      .cls-6 {
        fill: #ccb713;
      }

      .cls-7 {
        fill: #fefefe;
      }

      .cls-8 {
        fill: #cab716;
      }

      .cls-9 {
        fill: #c5b82f;
      }

      .cls-10 {
        fill: #cb9f69;
      }

      .cls-11 {
        fill: #fbe51b;
      }

      .cls-12 {
        fill: #ccb90d;
      }

      .cls-13 {
        fill: #cca068;
      }

      .cls-14 {
        fill: #ee8282;
      }

      .cls-15 {
        fill: #ffe811;
      }

      .cls-16 {
        fill: #fff;
      }

      .cls-17 {
        fill: #dedade;
      }

      .cls-18 {
        fill: #beae1d;
      }

      .cls-19 {
        fill: #ccc;
      }

      .cls-20 {
        fill: #f9e31b;
      }

      .cls-21 {
        fill: #cdcdcd;
      }

      .cls-22 {
        fill: #fde713;
      }

      .cls-23 {
        fill: #b1937f;
      }

      .cls-24 {
        fill: #fce618;
      }

      .cls-25 {
        fill: #22180d;
      }

      .cls-26 {
        fill: #f9e41c;
      }

      .cls-27 {
        fill: #bd1a18;
      }

      .cls-28 {
        fill: #f5e01c;
      }

      .cls-29 {
        fill: #fde71b;
      }

      .cls-30 {
        fill: #ba1a1a;
      }

      .cls-31 {
        fill: #c21918;
      }

      .cls-32 {
        fill: #fffefe;
      }

      .cls-33 {
        fill: #f3dd29;
      }

      .cls-34 {
        fill: #fae51b;
      }

      .cls-35 {
        fill: #a7251d;
      }

      .cls-36 {
        fill: #fde715;
      }

      .cls-37 {
        fill: #cecdce;
      }

      .cls-38 {
        fill: #482e15;
      }

      .cls-39 {
        fill: #ffe80f;
      }

      .cls-40 {
        fill: #e21918;
      }

      .cls-41 {
        fill: #c8b619;
      }

      .cls-42 {
        fill: #cdcdce;
      }

      .cls-43 {
        fill: #413b18;
      }

      .cls-44 {
        fill: #c7b41e;
      }

      .cls-45 {
        fill: #e41715;
      }

      .cls-46 {
        fill: #cecccb;
      }
    </style>
  </defs>
  <g id="Capa_1-2" data-name="Capa 1">
    <g>
      <path class="cls-3" d="M107.28,0l1.98.63c1.52,2.15,1.95,4.78,1.29,7.88l1.76,1.24c3,0,5.26,1.04,5.33,4.45v2.77c-.38,3.52-2.12,5.94-5.41,7.12l-1.48,11.03-.55.89c-1.38-.16-2.75-.44-4.11-.83l-6.71,25.82c12.25,9.6,15.72,26.07,11.88,41.68-.06.24-.24.45-.43.68s-.44.42-.68.61c-.14.25-.03.68-.2.91-.09,1.89-.63,2.79-1.64,2.69l-4.86-1.69c.87,8.07.62,18.43-4.32,25.14-1.25,1.7-2.07,2.17-3.95,2.71-.13,0-.35.1-.46.17l-.39,1.15c-3.02,2.1-7.38,3.15-10.98,3.15,6.8,16.74,7.3,39.03-9.23,49.79l-.33,11.51,11.49,7.65c.24.3.51.99.35,1.07-.6.31-2.49.3-3.1.03-8.31.23-16.73.28-25.24.17-.38-.51-.41-1.13-.07-1.87l2.05-5.1c-2.06-3.1-3.98-6.22-5.77-9.38-3.93-.24-7.79-.99-11.57-2.24-2.36,2.61-4.49,5.97-5.11,9.6,4.25,2.32,8.46,4.85,12.62,7.59.65.5.84.97.31,1.39-7.96.11-15.87.06-23.72-.17-2.26,0-4.52.09-6.96-.21.62-3,1.8-5.23,3.71-7.42-2.61-8.06.38-15.66,4.1-22.84-4.71-9.71-2.34-19.05,7.01-23.86-.39-1-1.15-1.57-1.39-2.56l5.75-.12c.04-3.97-.35-7.7.36-11.57.53-2.91,2.26-5.69,2.41-8.52.12-2.25-1.77-4.33-2.74-6.02-1.81-3.15-3.44-6.04-6-8.6-6.14.45-11.9,2.63-17.06,6.07l-5.32,3.54c-1.79,1.19-3.16,2.73-4.85,4.19-2.5-5.2-4.18-10.4-4.88-16.03-.36-2.87.1-11.5.27-10.19-.05-.38.05-.8.05-1.19,1.49-6.58,3.87-12.94,8.49-18.27,7.22.29,13.93,2.38,21.15,5.05-.23-9.57,2.63-18.7,8.65-25.8,12.22-14.27,28.57-15.86,45.7-10.5l8.26-23.63-3.58-1.41c1.56-2.33,3.84-4.07,5.15-6.48.11-.2.33-.51.5-.65l1.28-2.37c-2.63-4.11-.77-6.79,3.61-7.1l.25-4.84c.44-2.76,1.3-6.42,4.36-6.9h3.01Z"/>
      <path class="cls-16" d="M80.92,177.48c-3.05,3.84-7.61,6.56-12.12,8.2-6.56,2.39-17.48,3.58-23.91.46-.6-.29-.41-.79.14-1.16.14-.13.21-.34.3-.45.22-.24.07-.48-.06-.5-1.78-.2-6.52,5.74-8.04,6.94-4.22.82-8.77-.03-13.24-.04.48-5.46,2.91-9.26,3.83-13.99-3.02-9.4-1.99-16.83,6.91-21.87l3.23,3.93,5.19,4.78c-1.56.65-4.34,1.45-4.41,3.26-.11,3.04,3.44,3.43,6.06,3.18-1.51,1.38-3.46,3.21-1.95,5.06,1.65,2.02,4.5,1.21,6.34-.57.11,1.52-.86,2.76.29,3.68,1.25,1.01,3.18.77,4.63-.11.93-.56,2.02-1.88,2.24-3.48.61-4.51.89-8.95.72-13.54-.34-9.16-.67-18.1-1.55-27.21-.24-2.52-.31-4.92-1.37-7.42-.27,8.17.44,16.21.59,24.53-2.64-.07-5.22.46-7.38-.32l-.5-.14c-.02-8.05.15-16.17.52-24.38-1,6.32-1.97,12.7-2.93,19.12l-.65,1.09c-.41.81-.55.72-1.14.33-1.56-1.01-1.79-6.94-1.46-8.72.69-4.35,1.87-8.43,4.12-12.71-1.89.69-2.13,2.46-3.13,3.59-.58-.7-.29-1.54-.54-1.98-.5-3.54,2.3-9.53,6.5-7.52,3.57,1.83,6.92,4.06,9.85,7.19.4.43,1.18.19,1.57.25,2.81,0,5.63-.23,8.47-.7l.31.43c.48,1.94-1.33,5.28-1.33,8.37,4.08-.86,7.24.06,10.3,2.64-1.05-3.84-4.96-4.16-8.26-4.32l.9-7.11c.09-.69.03-1.45-.38-1.8-1.29-1.1-8.22.51-10.46,1.02-11.4-10.93-24.56-14.28-39.11-7.51-3.54,1.65-11.48,6.76-14.51,9.8C-.89,113.99.09,98.13,10.02,86.23c10.25.78,19.58,4.21,28.74,9.02,11.15,5.85,20.61,14.12,29.2,23.56,4.96,5.46,8.89,11.57,12.13,18.3,3.62,7.52,5.41,15.65,5.39,23.93-.01,6.27-1.84,11.46-4.55,16.45Z"/>
      <path class="cls-15" d="M55.02,156.39c.65,6.14.54,12.02-.24,17.93-.21,1.59-1.39,2.94-2.8,3.11-3.44.43,1.24-4.38.43-8.6-1.5,2.36-6.51,8.68-8.45,4.63,1.81-2.27,4.48-3.54,5.7-6.35-1.71,1.21-9.17,2.52-8.74-.25.09-.59.64-1.02,1.41-1.13l4.32-.6c-3.07-2.41-5.68-5.26-8.14-8.27-.06-.32-.08-.59.03-.65.76-.5,14.18-.29,16.23-.23.09,0,.17.18.26.41Z"/>
      <path class="cls-39" d="M61.41,200.74c-.75-1.57.02-3.88,1.65-4.41,2.81-.36,5.58-1.13,8.46-1.87l-.02,6.59,9.55,5.96-21.47.09c.83-4.27,1.01-2.03,1.82-6.36Z"/>
      <path class="cls-22" d="M29.81,194.37c1.23.21,2.49.3,3.79.28-.39,1.78-1.47,4.14-2.94,5.19-.1.45-.72.6-.6,1.27,2.55-1.14,4.47-.29,6.49.96,2.6,1.61,5.46,2.53,7.91,4.52h-22.74c.17-2.42,2.51-3.85,2.79-5.89s-1.47-4.35-.55-6.51c2.07.1,4.06.19,5.86.17Z"/>
      <path class="cls-42" d="M45.04,184.98c-.18.17-.1.37.19.46,7.48,2.48,15.24,2.31,22.71-.29,4.9-1.7,9-4.6,12.99-7.68-7.65,14.06-24.96,15.05-38.46,10.25.84-1.26,1.59-2.18,2.58-2.75Z"/>
      <path class="cls-7" d="M92.45,111.66c-3.36,1.09-6.69.65-9.95-1.3-1.33-.8-2.34-2.13-3.47-3.03-.48-2.92-1.68-4.23-.32-8.09l13.8,7.77c-1.15,1.2-1.62,2.84-.32,3.68.29.18.58.4.54.69-.01.12-.13.23-.28.28Z"/>
      <path class="cls-40" d="M47.38,150.84c-.33.24-.86.21-1.17,0-1.36.18-2.54-1.88-2.26-3.2-1.18.04-1.25-.7-.14-1.12.74-5.78,1.28-11.6,2.35-17.55.33-1.86.34-3.78,1.73-5.2.58,3.22.17,6.01.07,8.92l-.59,18.13Z"/>
      <path class="cls-10" d="M83.7,97.74l12.02,4.48c1.55.58,3.83.83,4.95,2.03.92,2.07.49,4.55.56,6.59-.74.05-1.37-.34-2.04-.57.33-2.25.67-4.97-1.63-6.34l-.11,3.42-15-8.86c-1.34-1.23.02-1.11,1.25-.74Z"/>
      <path class="cls-21" d="M48.17,119.52c-4.85-.24-5.12,4.28-6.5,7.52l-2.54-4.84c-1.08-2.05-2.52-3.85-3.89-5.77,4.95-.14,9.08,1.12,12.93,3.09Z"/>
      <path class="cls-29" d="M55.04,155.56l-.03.3c-5.54.03-11.09.11-16.65.26l-1.3-.58-1.77-2.75,19.63-.05c.36,1.13.18,1.98.13,2.82Z"/>
      <path class="cls-13" d="M76.84,100.83c-2.85-.77-7.1-3.56-9.68-3.5,1-2.64,1-1.63,2.04-5.11l7.97,2.89c-.68.49-.87,1.21-.87,2.03,0,.66.46,1.11,1.18,1.46l-.63,2.22Z"/>
      <path class="cls-46" d="M43.81,146.53c-.04.34-.04.86.14,1.12.58,1.6.48,2.68-.3,3.22-.85.08-1.92.97-2.96.19-.49-4.4-.14-8.74.52-12.91-.49,1.06,1.53,9.35,2.6,8.39Z"/>
      <path class="cls-41" d="M66.79,190.46c.52.89.05,1.63-1.4,2.22-2.77.67-5.3.68-8.01.71-.59,0-1.03-1.22-1.18-1.85,3.8.24,7.16-.38,10.59-1.08Z"/>
      <path class="cls-6" d="M30.66,199.85c.39-1.73,1.38-3.19,2.44-4.98-1.44-.4-2.63.4-3.3-.5,1.91-.01,3.82-.1,5.81.27l-1.7,4.39-3.25.81Z"/>
      <path class="cls-28" d="M34.76,192.42c.76.76.68,1.02-.36,1.18-3.58.24-6.83.03-10.4,0-.51,0-.21-1-.1-1.29.08-.22.49-.36.93-.34l9.93.45Z"/>
      <path class="cls-43" d="M55.04,155.56c-.02.44-.04.66-.03.82l-14.91-.05c-.68,0-1.21.19-1.6.52-.47-.57-1.35-.63-1.45-1.31l17.99.02Z"/>
      <path class="cls-4" d="M65.39,192.68c.25-.88.99-1.44,1.4-2.22l4.38-1.52c.63-.04.61,1.84-.03,2.21-1.92,1.12-3.88,1.08-5.75,1.53Z"/>
      <path class="cls-33" d="M63.69,195.45c-1.15-.74-.52-1.08.52-1.46,2.55-.24,4.77-1.08,7.16-1.59,1.85,2.05-7.13,3.02-7.67,3.05Z"/>
      <path class="cls-19" d="M68.37,126.69c-1.54.45-3.39.02-4.96.74s-2.57.48-3.82-.48c2.63-.8,5.47-.95,8.42-1.19.49-.04.3.7.36.92Z"/>
      <path class="cls-18" d="M64.2,193.99c-.25.45-.44.94-.52,1.46-2.2.13-6.06,1.38-5.61-.87l6.12-.59Z"/>
      <path class="cls-44" d="M63.06,196.33c-.63,1.44-1.36,2.85-1.65,4.41-.91-1.1-1.52-2.5-2.23-3.88,1.44-.59,2.66-.37,3.88-.53Z"/>
      <path class="cls-31" d="M46.21,150.85c-.7.74-1.87-.05-2.56.02.08-1.07-.57-2.46.3-3.22l2.26,3.2Z"/>
      <path class="cls-23" d="M83.7,97.74c-.27-.04-.57-.06-.88.05-.24.09-.51.34-.37.69-1.4-.83-2.85-1.5-4.22-2.67,2.12.3,3.75,1.29,5.47,1.93Z"/>
      <ellipse class="cls-17" cx="94.05" cy="109.14" rx=".85" ry=".88"/>
      <path class="cls-9" d="M34.4,193.6c.1-.4.21-.8.36-1.18.71.03,1.76-.34,1.83.27-.18,1.24-1.47,1.08-2.2.9Z"/>
      <path class="cls-1" d="M76.84,100.83c-.67,2.37.29,4.98,2.19,6.49l.92-.24c2.92,3.35,7.16,5.15,11.52,4.04l.99.54c.86-.28,2.11.32,3.05-.97.36-.5,1.26-1.21,1.9-1.14.58.06,1.2.51,1.79.72.58-.99,1.71-.43,2.04.57.18,5.71-.25,12.01-3.36,17.15-3.46,5.71-10.43,8.18-16.68,7.63-3.66-7.14-7.86-13.56-13.38-19.09l-7.71-7.73c3.47-3.28,5.46-7.27,7.05-11.47.58-.86,1.58-.91,3-.14l6.42,2.74.26.9Z"/>
      <path class="cls-25" d="M75.71,111.38c2.47,2.06,5.24,3.84,6.1,7.35-3.21-3.79-6.74-7.08-11.62-8.48,2.03-.5,3.5.71,5.52,1.13Z"/>
      <path class="cls-38" d="M78.32,118.51c-1.59.67-3.33-.76-3.86-2.6,1.14,1.18,2.11,1.72,3.86,2.6Z"/>
      <path class="cls-16" d="M66.47,56.98c5.52-1.58,11.46.45,16.67,2.5,2.08.82,4.61,2.07,5.48,4.28l1.29.19c9.13,9.9,14.71,24.17,11.09,37.68l-.85.38-3.79-1.29-28.97-11.11c-.35,1.97-.96,3.24-1.33,4.61-1.56,2.28-5.73,2.38-8.33,2.24-7.2-.37-13.73-4.52-17.32-11-1.36-2.45-3.46-6.43-2.19-9.1-.85-.71-.68-1.87.49-1.97-.08-1.78,1.85-4.8,3.07-6.28,5.16-6.28,12.27-10.82,20.32-11.69.33.54.77.77,1.33.62.85-.41,2.17-.39,3.06-.07Z"/>
      <path class="cls-45" d="M100.14,102.01l.85-4.51c2.12-11.29-4.24-25.8-12.38-33.75-4.67-7.4-14.32-8.1-22.15-7.19-.98.25-2.06.33-3.23.25l.17.23c-8.35.99-16.27,4.92-21.43,12.08-1.29,1.79-1.98,3.76-3.29,5.27-.22.05-.44.08-.65.06-1.7-.18-.39-4.88.19-6.03,1.04-.71,1.26-1.85,1.98-2.69,1.44-1.68,2.84-3.29,4.48-4.79,5.31-4.85,12.02-7.72,19.06-8.43,11.99-1.2,22.71,1.67,32.31,8.95,1.99,1.51,3.8,2.85,5.39,4.82,3.05,3.77,5.55,7.72,6.97,12.53,1.9,6.43,2.06,13.25.71,19.87-.43,2.14-.56,4.36-1.82,6.2l-7.18-2.87Z"/>
      <path class="cls-37" d="M66.05,94.22c-1.39,5.05-3.43,9.7-7.41,13.26-5.89-5.06-11.94-9.49-18.66-13.18-1.73-.95-3.78-1.24-4.82-2.82l-.72-.93c-.24-4.22,1.11-9.86,2.68-13.75l1.09-.42c-.32,1.6.27,3.24,1.2,4.72,3.44,11.66,16.22,17.58,26.64,13.13Z"/>
      <path class="cls-32" d="M100.16,48.25c-1.13,3.97-1.83,7.66-3.26,11.72l-6.78-4.19-.21-1.5,5.1-16.39.89-.29c.42-1.59.82-1.23,1.75-.23,1.49,1.6,3.16,8.58,2.52,10.88Z"/>
      <path class="cls-5" d="M96.19,35.98c1.02.64.71,1.23-.3,1.63l-2.31,7.47c-1.14,3.68-2,7.33-3.47,10.71-1.27-.79-2.49-.94-3.66-1.77l6.91-21.93c1.31-1.17,3.13,2.59,2.83,3.89Z"/>
      <path class="cls-27" d="M38.7,74.4c-.24.59-.17,1.41-.49,1.97-2.35,4.16-2.81,10.32-3.05,15.11-1.04.04-2.73-.31-3-1.33-.57-7.82,1.87-15.44,6.08-21.71.09,2.54-.92,4.71.46,5.97Z"/>
      <path class="cls-21" d="M100.16,48.25c.23-.42-2.98-13.46-4.27-10.65.16-.51.03-1.13.3-1.63-.11-1.18.61-4.36,1.93-4.33,2.21.47,4.13,1.19,6.2,1.94l-4.16,14.66Z"/>
      <path class="cls-36" d="M106.43,13.81c-1.64-.9-2.75-1.32-4.52-1.38-.29-2.51.1-10.29,2.99-10.9,1.26-.26,2.7-.16,3.15,1.23,1.2,3.68.31,7.57-1.62,11.05Z"/>
      <path class="cls-12" d="M108.89,29.52c-1.51.06-4.74-.79-6.02-1.67-.13-.09-.17-.32-.18-.59-1.79-1.57-3.63-3.06-5.55-4.46l-.17-1.03c.36-.35.69-1.78,1.59-1.61,8.08,1.54,4.75,2.87,6.97,3.82,1.43.61,2.65-.17,4.27-.94.37.95-.12,6.03-.92,6.47Z"/>
      <path class="cls-24" d="M103.3,19.8c-3.96-.11-6.98-2.81-6.14-4.83.56-1.34,5.13-1.25,6.78-.88s2.56,1.59,2.38,3.06-1.11,2.7-3.02,2.65Z"/>
      <path class="cls-34" d="M94.31,25.35c3.08.66,6.13,1.56,9.15,2.73l.4.73c1.09.53,1.79,2.33.43,2.85l-12.92-3.79c.59-1.25,1.53-2.71,2.94-2.51Z"/>
      <path class="cls-11" d="M109.37,10.36c4.02-.98,1.1,12.58-2.58,12.12-.62-.08-1.17-.53-1.8-1.45,2.63-1.18,3.07-3.69,2.43-6.45.49-1.21,1.64-2.81,1.95-4.23Z"/>
      <path class="cls-26" d="M116.18,16.8c-.9,2.93-2.93,5.07-5.96,5.34,1.46-3.42,2.55-6.64,2.07-10.31,1.45-.25,2.5.28,3.26,1.14.83.94,1.09,2.34.63,3.82Z"/>
      <path class="cls-20" d="M96.98,21.76c2.26,1.38,4.56,3.03,5.71,5.49-.21.2-.41.35-.57.31-2.41-.59-5.4-1.47-7.41-2.7-.08-.13-.44-.11-.49-.29-.1-.35,1.97-3.07,2.75-2.8Z"/>
      <path class="cls-30" d="M98.13,31.65c-.64,1.13-.81,3.88-1.93,4.33-1.04-.4-1.28-3.14-2.83-3.89.07-.87.49-1.35.94-1.57.72-.35,3.39,1.05,3.82,1.14Z"/>
      <path class="cls-8" d="M108.09,30.06c.22.12.83.09.91.51.18.86-.06,1.87-.41,2.48-1.72-.14-2.97-1-4.3-1.39.03-.97-.24-1.9-.43-2.85.12-.25.23-.44.3-.42,1.13.23,3.2,1,3.93,1.67Z"/>
      <path class="cls-2" d="M102.7,27.26c2.05.72,4.04,1.88,6.2,2.26-.25.14-.64.23-.8.54-.98-.51-3.18-.77-4.23-1.25-3.11-1.42-6.42-2.24-9.55-3.45.22.03.53-.28.41-.49,2.54,1.14,5.38,1.48,7.98,2.39Z"/>
      <path class="cls-14" d="M88.62,63.76c-.98-.96-2.59-1.94-3.93-2.65-5.7-3.01-12.03-4.2-18.22-4.13-.33-.11-.33-.25,0-.41,6.8-2.42,14.58-.84,20.39,3.74,1.13.89,1.67,2.26,1.76,3.45Z"/>
      <path class="cls-35" d="M66.47,56.57v.41c-1.02.01-2.04-.05-3.05.07-.37-.15-.88.16-1.18-.41l4.24-.07Z"/>
    </g>
  </g>
</svg>